<?xml version="1.0" encoding="utf-8"?>
<!-- Generator: Adobe Illustrator 15.0.0, SVG Export Plug-In . SVG Version: 6.00 Build 0)  -->
<!DOCTYPE svg PUBLIC "-//W3C//DTD SVG 1.1//EN" "http://www.w3.org/Graphics/SVG/1.1/DTD/svg11.dtd">
<svg version="1.1" id="Layer_1" xmlns="http://www.w3.org/2000/svg" xmlns:xlink="http://www.w3.org/1999/xlink" x="0px" y="0px"
	 width="595.28px" height="1129.637px" viewBox="0 0 595.28 1129.637" enable-background="new 0 0 595.28 1129.637"
	 xml:space="preserve">
<rect x="116.117" y="30.663" fill="#3F403F" width="372.286" height="85.837"/>
<rect x="116.117" y="116.5" fill="#DCDBDB" width="372.286" height="996.207"/>
<path fill="#658BB5" d="M345.112,969.26c-1.854,3.074-4.101,5.979-6.753,8.631c-17.625,17.625-46.201,17.625-63.826,0
	c-14.972-14.973-17.217-37.842-6.753-55.191L345.112,969.26z"/>
<path fill="#58ACA9" d="M338.359,914.064c14.973,14.973,17.219,37.842,6.753,55.195l-77.333-46.561
	c1.854-3.076,4.1-5.98,6.753-8.635C292.159,896.439,320.734,896.439,338.359,914.064z"/>
<path fill="#58ACA9" d="M260.082,532.094c1.854,3.074,4.1,5.979,6.753,8.631c17.625,17.625,46.201,17.627,63.827,0
	c14.972-14.973,17.217-37.842,6.752-55.191L260.082,532.094z"/>
<path fill="#69C188" d="M266.835,476.898c-14.972,14.973-17.218,37.842-6.753,55.195l77.332-46.561
	c-1.853-3.076-4.1-5.98-6.752-8.635C313.036,459.273,284.461,459.273,266.835,476.898z"/>
<rect x="228.264" y="144.287" fill="#34AE61" width="260.19" height="71.099"/>
<g>
	<g>
		<polygon fill="#FBB03C" points="457.701,144.226 446.567,144.226 427.303,112.971 438.436,112.971 		"/>
		<path fill="#F04923" d="M474.169,118.42c0.166,8.533-7.264,15.6-16.595,15.782c-9.329,0.18-17.032-6.591-17.198-15.123
			c-0.163-8.534,7.264-15.602,16.594-15.783C466.303,103.114,474.004,109.886,474.169,118.42z"/>
		<path fill="#C12026" d="M477.227,105.232c0.715-1.081,1.134-2.377,1.134-3.77c0-2.869-1.768-5.322-4.27-6.344
			c0.265-0.727,0.416-1.507,0.416-2.327c0-3.602-2.782-6.55-6.316-6.823c0-0.009,0.003-0.017,0.003-0.026
			c0-3.784-3.069-6.852-6.854-6.852c-0.328,0-0.65,0.032-0.967,0.076c-0.573-3.207-3.366-5.642-6.738-5.642
			c-1.259,0-2.434,0.344-3.443,0.935c-1.098-2.32-3.453-3.932-6.189-3.932c-2.105,0-3.989,0.953-5.246,2.449
			c-1.257-1.496-3.138-2.449-5.244-2.449c-2.568,0-4.802,1.414-5.977,3.503c-1.138-0.851-2.551-1.363-4.087-1.363
			c-3.214,0-5.902,2.218-6.643,5.202c-0.608-0.178-1.252-0.277-1.917-0.277c-3.787,0-6.852,3.067-6.852,6.851
			c0,0.01,0,0.021,0,0.033c-0.211-0.021-0.428-0.033-0.645-0.033c-3.78,0-6.848,3.068-6.848,6.85c0,0.908,0.18,1.77,0.499,2.562
			c-2.989,0.735-5.211,3.428-5.211,6.643c0,1.499,0.487,2.882,1.304,4.008c-1.328,1.25-2.159,3.018-2.159,4.985
			c0,3.782,3.067,6.849,6.85,6.849c0.246,0,0.487-0.016,0.724-0.04c0.533,0.119,1.084,0.182,1.654,0.182h65.077
			c0.419,0,0.828-0.039,1.229-0.106c0.495,0.112,1.008,0.177,1.534,0.177c3.784,0,6.851-3.065,6.851-6.85
			C478.895,107.993,478.263,106.432,477.227,105.232z"/>
		<path fill="none" stroke="#F04923" stroke-width="1.7126" stroke-linecap="round" stroke-linejoin="round" d="M453.186,80.294
			c-1.095-2.321-3.45-3.933-6.188-3.933c-2.106,0-3.987,0.953-5.247,2.447c-1.255-1.495-3.139-2.447-5.244-2.447
			c-2.568,0-4.803,1.415-5.974,3.504c-1.141-0.851-2.553-1.363-4.087-1.363c-3.215,0-5.904,2.217-6.644,5.202
			c-0.607-0.178-1.254-0.278-1.919-0.278c-3.784,0-6.851,3.068-6.851,6.852"/>
		<path fill="#C12026" d="M477.255,118.857c0,3.605-2.922,6.53-6.534,6.53h-40.352c-3.606,0-6.528-2.925-6.528-6.53l0,0
			c0-3.605,2.922-6.53,6.528-6.53h40.352C474.333,112.327,477.255,115.251,477.255,118.857L477.255,118.857z"/>
		<path fill="none" stroke="#F04923" stroke-width="1.7126" stroke-linecap="round" stroke-linejoin="round" d="M440.769,85.736
			h4.208c2.577,0,4.664,2.089,4.664,4.664l0,0c0,2.576-2.087,4.665-4.664,4.665h-29.349c-2.575,0-4.665-2.089-4.665-4.665l0,0
			c0-0.786,0.196-1.527,0.54-2.177"/>
		<path fill="none" stroke="#F04923" stroke-width="1.7126" stroke-linecap="round" stroke-linejoin="round" d="M456.537,107.515
			h-29.348c-2.578,0-4.664-2.087-4.664-4.663l0,0c0-0.787,0.195-1.527,0.541-2.179"/>
		<path fill="none" stroke="#F04923" stroke-width="1.7126" stroke-linecap="round" stroke-linejoin="round" d="M441.531,107.624
			c-2.576,0-4.662-2.087-4.662-4.665l0,0c0-0.788,0.193-1.527,0.539-2.178"/>
		<path fill="none" stroke="#F04923" stroke-width="1.7126" stroke-linecap="round" stroke-linejoin="round" d="M438.023,124.419
			c-0.75-0.248-1.425-0.733-1.907-1.432l0,0c-0.362-0.525-0.573-1.106-0.642-1.696"/>
		<path fill="none" stroke="#F04923" stroke-width="1.7126" stroke-linecap="round" stroke-linejoin="round" d="M475.612,104.625
			c-2.385,0.976-5.109-0.166-6.082-2.551l0,0c-0.298-0.729-0.398-1.489-0.326-2.221"/>
		<path fill="none" stroke="#F04923" stroke-width="1.7126" stroke-linecap="round" stroke-linejoin="round" d="M449.901,90.017
			h4.211c2.574,0,4.664,2.089,4.664,4.664l0,0c0,2.576-2.09,4.666-4.664,4.666"/>
		<path fill="none" stroke="#F04923" stroke-width="1.7126" stroke-linecap="round" stroke-linejoin="round" d="M457.177,112.734
			h-8.303c-2.077,0-3.762,1.685-3.762,3.765l0,0c0,2.077,1.685,3.763,3.762,3.763"/>
		<path fill="none" stroke="#F04923" stroke-width="1.7126" stroke-linecap="round" stroke-linejoin="round" d="M424.2,118.042
			c0.981-1.856,2.932-3.119,5.176-3.119h15.634"/>
		<path fill="none" stroke="#F04923" stroke-width="1.7126" stroke-linecap="round" stroke-linejoin="round" d="M410.121,99.877
			c-2.434,0-4.409-1.973-4.409-4.412c0-2.436,1.976-4.411,4.409-4.411c0.095,0,0.188,0.004,0.283,0.01"/>
		<path fill="none" stroke="#F04923" stroke-width="1.7126" stroke-linecap="round" stroke-linejoin="round" d="M413.259,98.773
			c-0.095-0.007-0.189-0.009-0.284-0.009c-2.435,0-4.408,1.974-4.408,4.409c0,2.438,1.974,4.412,4.408,4.412h17.033"/>
		<path fill="none" stroke="#F04923" stroke-width="1.7126" stroke-linecap="round" stroke-linejoin="round" d="M465.884,116.355
			c0.095,0.005,0.189,0.006,0.281,0.006c2.438,0,4.411-1.973,4.411-4.409c0-2.437-1.974-4.412-4.411-4.412h-17.033"/>
		<path fill="none" stroke="#F04923" stroke-width="1.2712" stroke-linecap="round" stroke-linejoin="round" d="M433.527,94.812
			c-3.305,0-5.98-2.677-5.98-5.982"/>
		<path fill="none" stroke="#F04923" stroke-width="1.7126" stroke-linecap="round" stroke-linejoin="round" d="M397.021,105.758
			c1.122-0.654,2.471-0.935,3.854-0.699c1.39,0.236,2.574,0.955,3.415,1.954"/>
		<path fill="none" stroke="#F04923" stroke-width="1.7257" stroke-linecap="round" stroke-linejoin="round" d="M459.832,88.722
			c0.073-0.032,0.149-0.062,0.228-0.093c2.598-1.019,5.545,0.229,6.581,2.792c1.033,2.561-0.232,5.461-2.833,6.481
			c-0.078,0.03-0.153,0.059-0.231,0.084"/>
		<path fill="none" stroke="#F04923" stroke-width="1.7257" stroke-linecap="round" stroke-linejoin="round" d="M452.877,81.52
			c0.057-0.057,0.115-0.112,0.177-0.167c2.05-1.874,5.259-1.758,7.161,0.264c1.903,2.021,1.782,5.179-0.271,7.054
			c-0.058,0.055-0.118,0.107-0.18,0.16"/>
	</g>
	<path fill="#A09F9F" d="M432.116,62.216c0,0.593-0.479,1.073-1.071,1.073l0,0c-0.593,0-1.073-0.479-1.073-1.073V52.021
		c0-0.592,0.48-1.072,1.073-1.072l0,0c0.592,0,1.071,0.48,1.071,1.072V62.216z"/>
	<path fill="#A09F9F" d="M437.35,65.3c0,0.593-0.48,1.074-1.075,1.074l0,0c-0.591,0-1.072-0.481-1.072-1.074V55.107
		c0-0.593,0.481-1.073,1.072-1.073l0,0c0.595,0,1.075,0.48,1.075,1.073V65.3z"/>
	<path fill="#A09F9F" d="M442.446,62.349c0,0.594-0.479,1.073-1.074,1.073l0,0c-0.591,0-1.072-0.479-1.072-1.073V52.156
		c0-0.592,0.481-1.073,1.072-1.073l0,0c0.595,0,1.074,0.48,1.074,1.073V62.349z"/>
	<path fill="#A09F9F" d="M463.771,29.765c0-5.452-4.422-9.873-9.875-9.873c-2.743,0-5.223,1.121-7.013,2.928
		c-1.277-1.772-3.354-2.928-5.703-2.928c-2.521,0-4.729,1.333-5.968,3.329c-1.651-2.372-4.392-3.928-7.495-3.928
		c-4.528,0-8.272,3.298-8.992,7.619c-5.324,0.803-9.409,5.384-9.409,10.932c0,6.116,4.955,11.071,11.068,11.071
		c4.038,0,7.56-2.167,9.492-5.394c2.174,2.942,5.847,4.635,9.726,4.1c2.328-0.321,4.355-1.404,5.899-2.952
		c0.895,3.306,3.907,5.74,7.497,5.74c4.298,0,7.779-3.483,7.779-7.78c0-1.718-0.563-3.301-1.507-4.589
		C461.979,36.279,463.771,33.233,463.771,29.765z"/>
</g>
<polyline fill="none" stroke="#FFFFFF" stroke-width="3.7048" stroke-miterlimit="10" points="129.582,116.5 129.582,467.332 
	475.612,553.283 475.612,904.498 129.582,990.449 129.582,1112.707 "/>
<polygon fill="#69C188" points="262.033,144.287 165.431,144.287 165.431,215.386 262.033,215.386 297.582,179.836 "/>
<g>
	<path fill="#34AE61" d="M160.42,215.386v-50.942h-18.452v-6.819c2.407,0,4.746-0.183,7.02-0.551
		c2.271-0.367,4.327-1.053,6.167-2.056c1.837-1.003,3.392-2.373,4.663-4.112c1.269-1.737,2.139-3.944,2.607-6.619h6.519v71.099
		H160.42z"/>
</g>
<text transform="matrix(1 0 0 1 176.605 166.4087)"><tspan x="0" y="0" fill="#E5E5E5" font-family="'HelveticaNeue'" font-size="14.8192">GRAU </tspan><tspan x="0" y="17.783" fill="#E5E5E5" font-family="'HelveticaNeue'" font-size="14.8192">LEVE OU </tspan><tspan x="0" y="35.566" fill="#E5E5E5" font-family="'HelveticaNeue'" font-size="14.8192">MODERADO</tspan></text>
<text transform="matrix(1 0 0 1 301.3857 172.4287)"><tspan x="0" y="0" fill="#E5E5E5" font-family="'HelveticaNeue'" font-size="14.8192">PSICOTERAPIA </tspan><tspan x="23.451" y="17.783" fill="#E5E5E5" font-family="'HelveticaNeue'" font-size="14.8192">ISOLADA</tspan></text>
<rect x="222.612" y="259.99" fill="#088141" width="265.046" height="71.099"/>
<polygon fill="#0CA54A" points="306.766,259.99 166.774,259.99 185.154,271.226 180.956,293.947 144.895,322.351 167.189,331.088 
	306.766,331.088 342.316,295.54 "/>
<g>
	<polygon fill="#DCDBDB" points="119.03,205.086 119.03,161.076 141.035,183.081 	"/>
	<polygon fill="#FFFFFF" points="127.837,164.644 127.837,169.883 141.035,183.081 127.837,196.278 127.837,201.518 
		146.275,183.081 	"/>
</g>
<g>
	<path fill="#69C188" d="M145.07,275.183c0.933-3.066,2.383-5.714,4.352-7.95c1.965-2.232,4.416-3.985,7.35-5.25
		c2.933-1.266,6.269-1.9,10.002-1.9c3.067,0,5.951,0.449,8.651,1.349c2.701,0.898,5.053,2.202,7.053,3.901
		c1.999,1.7,3.582,3.819,4.749,6.35c1.167,2.534,1.751,5.47,1.751,8.805c0,3.136-0.483,5.9-1.45,8.298
		c-0.967,2.403-2.25,4.552-3.851,6.452c-1.6,1.904-3.433,3.619-5.499,5.152c-2.069,1.533-4.203,3.004-6.403,4.4
		c-2.2,1.338-4.4,2.652-6.601,3.951c-2.2,1.299-4.219,2.686-6.051,4.151c-1.836,1.47-3.401,3.052-4.7,4.752
		c-1.303,1.699-2.152,3.648-2.552,5.851h36.409v7.502h-46.312c0.332-4.201,1.084-7.785,2.252-10.755
		c1.165-2.964,2.65-5.548,4.449-7.751c1.802-2.197,3.834-4.132,6.103-5.802c2.267-1.665,4.635-3.232,7.102-4.698
		c3-1.865,5.633-3.584,7.901-5.152c2.267-1.567,4.151-3.15,5.651-4.752c1.502-1.597,2.635-3.331,3.401-5.201
		c0.765-1.866,1.15-4.034,1.15-6.5c0-1.935-0.369-3.683-1.101-5.25c-0.735-1.568-1.717-2.916-2.95-4.054
		c-1.235-1.134-2.686-1.998-4.351-2.599c-1.668-0.601-3.436-0.898-5.302-0.898c-2.467,0-4.584,0.518-6.352,1.548
		c-1.765,1.035-3.216,2.384-4.349,4.054c-1.135,1.665-1.952,3.551-2.453,5.65c-0.5,2.101-0.718,4.215-0.649,6.35h-8.503
		C143.769,281.586,144.135,278.25,145.07,275.183z"/>
</g>
<g>
	<polygon fill="#DCDBDB" points="119.03,318.947 119.03,274.936 141.035,296.941 	"/>
	<polygon fill="#FFFFFF" points="127.837,278.504 127.837,283.744 141.035,296.941 127.837,310.139 127.837,315.378 
		146.275,296.941 	"/>
</g>
<text transform="matrix(1 0 0 1 196.7002 282.3462)"><tspan x="0" y="0" fill="#FFFFFF" font-family="'HelveticaNeue'" font-size="14.8192">GRAU SEM </tspan><tspan x="0" y="17.783" fill="#FFFFFF" font-family="'HelveticaNeue'" font-size="14.8192">MODIFICAÇÃO </tspan><tspan x="0" y="35.566" fill="#FFFFFF" font-family="'HelveticaNeue'" font-size="14.8192">APÓS UM MÊS</tspan></text>
<text transform="matrix(1 0 0 1 349.8818 282.3452)"><tspan x="0" y="0" fill="#E5E5E5" font-family="'HelveticaNeue'" font-size="14.8192">TROCA </tspan><tspan x="15.367" y="17.783" fill="#E5E5E5" font-family="'HelveticaNeue'" font-size="14.8192">DE </tspan><tspan x="-3.008" y="35.566" fill="#E5E5E5" font-family="'HelveticaNeue'" font-size="14.8192">TERAPIA</tspan></text>
<circle fill="#DCDBDB" cx="464.315" cy="295.617" r="45.132"/>
<path fill="#088141" d="M500.331,290.869c0,10.05-6.744,18.53-15.946,21.171c4.207-2.475,7.033-7.02,7.033-12.245
	c0-7.118-5.259-12.981-12.104-14.008v12.553l-23.629-20.73l23.629-20.72v12.005C491.001,269.426,500.331,279.042,500.331,290.869z
	 M450.252,320.704v12.005l23.62-20.727l-23.62-20.726v12.543c-6.847-1.014-12.106-6.885-12.106-13.999
	c0-5.228,2.825-9.778,7.03-12.242c-9.203,2.643-15.951,11.12-15.951,21.164C429.225,310.553,438.561,320.161,450.252,320.704z"/>
<circle fill="#DCDBDB" cx="464.315" cy="181.599" r="45.132"/>
<g>
	<circle fill="#34AE61" cx="457.606" cy="189.34" r="27.12"/>
	<circle fill="#088141" cx="482.778" cy="154.615" r="6.339"/>
	<circle fill="#088141" cx="451.054" cy="180.952" r="6.339"/>
	<circle fill="#088141" cx="468.361" cy="188.276" r="6.338"/>
	<circle fill="#088141" cx="452.595" cy="198.239" r="6.338"/>
</g>
<rect x="222.612" y="374.838" fill="#34AE61" width="265.046" height="71.099"/>
<polygon fill="#69C188" points="246.422,374.838 166.774,374.838 184.279,390.813 171.57,409.647 187.13,423.244 182.313,436.951 
	167.189,445.938 246.422,445.938 281.973,410.388 "/>
<g>
	<polygon fill="#DCDBDB" points="119.03,431.572 119.03,387.562 141.035,409.567 	"/>
	<polygon fill="#FFFFFF" points="127.837,391.129 127.837,396.37 141.035,409.567 127.837,422.766 127.837,428.004 146.275,409.567 
			"/>
</g>
<circle fill="#DCDBDB" cx="464.315" cy="410.465" r="45.132"/>
<text transform="matrix(1 0 0 1 197.6958 402.8989)"><tspan x="0" y="0" fill="#E5E5E5" font-family="'HelveticaNeue'" font-size="14.8192">GRAU </tspan><tspan x="0" y="17.783" fill="#E5E5E5" font-family="'HelveticaNeue'" font-size="14.8192">LEVE</tspan></text>
<text transform="matrix(1 0 0 1 292.5078 397.7983)"><tspan x="0" y="0" fill="#E5E5E5" font-family="'HelveticaNeue'" font-size="14.8192">CONSIDERAR </tspan><tspan x="-2.615" y="17.783" fill="#E5E5E5" font-family="'HelveticaNeue'" font-size="14.8192">COMBINAÇÃO </tspan><tspan x="-13.737" y="35.567" fill="#E5E5E5" font-family="'HelveticaNeue'" font-size="14.8192">COM MEDICAÇÃO</tspan></text>
<g>
	<path fill="#34AE61" d="M161.569,405.173c0.331,0,0.663,0,0.996,0h1.79c1.79,0,3.497-0.248,5.121-0.748
		c1.625-0.495,3.05-1.224,4.28-2.186c1.223-0.961,2.202-2.171,2.933-3.633c0.729-1.457,1.093-3.114,1.093-4.974
		c0-3.777-1.192-6.615-3.58-8.504c-2.387-1.89-5.371-2.83-8.953-2.83c-2.253,0-4.226,0.411-5.917,1.241
		c-1.69,0.831-3.082,1.938-4.177,3.333c-1.095,1.39-1.906,3.016-2.438,4.872c-0.529,1.859-0.794,3.816-0.794,5.87h-8.456
		c0.134-3.384,0.68-6.469,1.641-9.252c0.962-2.782,2.339-5.172,4.129-7.163c1.79-1.987,4.028-3.546,6.714-4.673
		c2.686-1.126,5.784-1.689,9.298-1.689c3.05,0,5.884,0.379,8.507,1.142c2.617,0.762,4.888,1.908,6.812,3.434
		c1.923,1.525,3.43,3.481,4.526,5.866c1.095,2.39,1.642,5.206,1.642,8.456c0,3.181-0.93,6.003-2.785,8.456
		c-1.858,2.451-4.177,4.307-6.962,5.57v0.199c4.308,0.927,7.508,2.947,9.596,6.065c2.091,3.118,3.135,6.795,3.135,11.04
		c0,3.516-0.648,6.615-1.94,9.301c-1.294,2.686-3.033,4.926-5.224,6.713c-2.188,1.791-4.757,3.131-7.708,4.029
		c-2.95,0.895-6.085,1.342-9.4,1.342c-3.58,0-6.829-0.496-9.748-1.492c-2.919-0.994-5.406-2.467-7.459-4.424
		c-2.055-1.957-3.631-4.361-4.724-7.213c-1.095-2.852-1.61-6.1-1.542-9.746h8.453c0.134,4.574,1.459,8.305,3.98,11.188
		c2.518,2.887,6.2,4.328,11.04,4.328c2.054,0,4.011-0.316,5.869-0.945c1.855-0.627,3.482-1.525,4.874-2.688
		c1.392-1.156,2.501-2.582,3.332-4.273c0.828-1.695,1.243-3.598,1.243-5.721c0-2.189-0.398-4.129-1.192-5.818
		c-0.797-1.69-1.858-3.118-3.184-4.279c-1.328-1.155-2.901-2.021-4.725-2.584s-3.795-0.845-5.918-0.845
		c-1.79,0-3.479,0.097-5.072,0.297v-7.159C161.005,405.139,161.302,405.173,161.569,405.173z"/>
</g>
<path fill="#088141" d="M490.071,385.171c-5.373-5.372-14.086-5.372-19.459,0l-17.46,17.461l19.459,19.458l17.46-17.458
	C495.445,399.258,495.445,390.546,490.071,385.171z"/>
<path fill="#34AE61" d="M459.72,409.2l15.271-15.271l-2.434-2.433l-15.269,15.271l-4.136-4.134L439.484,416.3
	c-5.375,5.374-5.373,14.086,0,19.458c5.374,5.375,14.086,5.375,19.459,0l13.668-13.668L459.72,409.2z"/>
<rect x="115.998" y="578.361" fill="#2A928E" width="265.046" height="71.098"/>
<polygon fill="#58ACA9" points="258.686,649.459 444.799,649.459 444.799,628.861 411.826,628.861 444.799,578.361 258.686,578.361 
	294.236,613.91 "/>
<g>
	<polygon fill="#DCDBDB" points="486.108,592.727 486.108,636.736 464.103,614.732 	"/>
	<polygon fill="#FFFFFF" points="477.301,633.168 477.301,627.928 464.103,614.732 477.301,601.533 477.301,596.295 
		458.863,614.732 	"/>
</g>
<circle fill="#DCDBDB" cx="139.341" cy="613.834" r="45.132"/>
<g>
	<path fill="#2A928E" d="M458.863,625.125v7.496h-9.594v16.588h-7.996v-16.588H410.2v-8.193l32.272-46.066h6.797v46.764H458.863z
		 M441.273,590.451h-0.195l-23.588,34.674h23.783V590.451z"/>
</g>
<text transform="matrix(1 0 0 1 188.9507 600.9375)"><tspan x="0" y="0" fill="#E5E5E5" font-family="'HelveticaNeue'" font-size="14.8192">FASE DE </tspan><tspan x="0" y="17.783" fill="#E5E5E5" font-family="'HelveticaNeue'" font-size="14.8192">TOMADA DE </tspan><tspan x="0" y="35.566" fill="#E5E5E5" font-family="'HelveticaNeue'" font-size="14.8192">DECISÃO</tspan></text>
<text transform="matrix(1 0 0 1 297.1792 609.498)"><tspan x="0" y="0" fill="#E5E5E5" font-family="'HelveticaNeue'" font-size="14.8192">PREFERÊNCIAS </tspan><tspan x="21.54" y="17.783" fill="#E5E5E5" font-family="'HelveticaNeue'" font-size="14.8192">PACIENTE</tspan></text>
<rect x="115.998" y="694.064" fill="#006C68" width="265.046" height="71.098"/>
<polygon fill="#078984" points="262.391,765.162 431.377,765.162 454.061,745.006 438.13,720.369 414.234,727.408 420.902,694.064 
	262.391,694.064 297.941,729.613 "/>
<g>
	<polygon fill="#DCDBDB" points="486.108,708.43 486.108,752.439 464.103,730.436 	"/>
	<polygon fill="#FFFFFF" points="477.301,748.871 477.301,743.631 464.103,730.436 477.301,717.236 477.301,711.998 
		458.863,730.436 	"/>
</g>
<circle fill="#DCDBDB" cx="139.341" cy="729.537" r="45.132"/>
<rect x="115.998" y="809.768" fill="#2A928E" width="265.046" height="71.098"/>
<polygon fill="#58ACA9" points="252.758,880.865 431.377,880.865 414.419,867.264 415.346,822.25 433.402,809.768 252.758,809.768 
	288.309,845.318 "/>
<g>
	<polygon fill="#DCDBDB" points="486.108,824.133 486.108,868.143 464.103,846.139 	"/>
	<polygon fill="#FFFFFF" points="477.301,864.574 477.301,859.334 464.103,846.139 477.301,832.939 477.301,827.701 
		458.863,846.139 	"/>
</g>
<circle fill="#DCDBDB" cx="139.341" cy="845.24" r="45.132"/>
<g>
	<path fill="#006C68" d="M422.548,701.494l-3.812,20.469l0.196,0.201c1.538-1.74,3.527-3.023,5.973-3.859
		c2.443-0.838,4.865-1.256,7.274-1.256c3.146,0,6.119,0.5,8.927,1.504c2.812,1.004,5.252,2.527,7.33,4.566
		c2.067,2.043,3.714,4.582,4.913,7.623c1.205,3.047,1.809,6.609,1.809,10.686c0,3.014-0.52,5.938-1.558,8.779
		c-1.039,2.848-2.593,5.371-4.664,7.58c-2.078,2.205-4.665,3.963-7.776,5.266c-3.11,1.305-6.741,1.955-10.887,1.955
		c-3.081,0-5.972-0.449-8.676-1.352c-2.715-0.906-5.105-2.211-7.177-3.914c-2.073-1.705-3.715-3.826-4.915-6.369
		c-1.205-2.543-1.842-5.42-1.91-8.633h8.529c0.132,1.807,0.583,3.498,1.357,5.07c0.764,1.572,1.803,2.945,3.106,4.111
		c1.302,1.17,2.841,2.076,4.614,2.709c1.773,0.637,3.733,0.955,5.869,0.955c2.01,0,3.931-0.354,5.772-1.053
		c1.843-0.707,3.448-1.76,4.82-3.16c1.367-1.406,2.455-3.166,3.258-5.271c0.8-2.107,1.2-4.562,1.2-7.375
		c0-2.342-0.381-4.496-1.15-6.471c-0.77-1.969-1.857-3.68-3.258-5.115c-1.406-1.439-3.097-2.562-5.066-3.361
		c-1.979-0.803-4.165-1.205-6.576-1.205c-2.812,0-5.3,0.617-7.475,1.855c-2.176,1.24-4.097,2.857-5.771,4.867l-7.32-0.402
		l6.619-36.926h35.118v7.525H422.548z"/>
</g>
<text transform="matrix(1 0 0 1 191.7192 717.5273)"><tspan x="0" y="0" fill="#E5E5E5" font-family="'HelveticaNeue'" font-size="14.8192">FASE DE </tspan><tspan x="0" y="17.783" fill="#E5E5E5" font-family="'HelveticaNeue'" font-size="14.8192">MANUTEN-</tspan><tspan x="0" y="35.566" fill="#E5E5E5" font-family="'HelveticaNeue'" font-size="14.8192">ÇÃO</tspan></text>
<text transform="matrix(1 0 0 1 314.6553 709.1133)"><tspan x="0" y="0" fill="#E5E5E5" font-family="'HelveticaNeue'" font-size="14.8192">TERAPIA </tspan><tspan x="-12.641" y="17.783" fill="#E5E5E5" font-family="'HelveticaNeue'" font-size="14.8192">COMPORTA-</tspan><tspan x="0.674" y="35.566" fill="#E5E5E5" font-family="'HelveticaNeue'" font-size="14.8192">MENTAL </tspan><tspan x="-7.136" y="53.348" fill="#E5E5E5" font-family="'HelveticaNeue'" font-size="14.8192">COGNITIVA</tspan></text>
<g>
	<g>
		<path fill-rule="evenodd" clip-rule="evenodd" fill="#2A928E" d="M146.146,704.789c0.016,0.016,0.031,0.031,0.047,0.047
			c-0.035,0.887-0.1,1.773-0.093,2.66c0.359,0.291,0.7,0.578,1.003,0.912c0.123,0.133,0.222,0.354,0.351,0.443
			c0.31,0.213,1.035,0.014,1.355,0c0.493-0.02,0.934,0.002,1.353-0.045c0.016,0.014,0.032,0.029,0.047,0.045
			c0.191,0.467,0.422,0.936,0.562,1.4c-0.647,0.541-1.292,1.217-1.939,1.754c0.054,0.699,0.059,1.4,0,2.102
			c0.648,0.586,1.293,1.152,1.94,1.795c-0.169,0.451-0.357,0.904-0.561,1.354c-0.018,0.018-0.032,0.033-0.047,0.047
			c-0.887-0.029-1.774-0.086-2.662-0.092c-0.35,0.467-0.899,1.047-1.376,1.379c-0.072,0.895,0.052,1.789,0.069,2.684
			c-0.024,0.023-0.048,0.047-0.071,0.07c-0.466,0.154-0.934,0.459-1.401,0.516c-0.562-0.641-1.143-1.279-1.774-1.916
			c-0.327,0.016-0.638,0.047-1.027,0.045c-0.236,0.002-0.867-0.131-1.051-0.02c-0.303,0.176-0.579,0.646-0.864,0.955
			c-0.303,0.328-0.589,0.623-0.864,0.957c-0.475-0.143-0.95-0.346-1.424-0.582c-0.043-0.424,0.029-0.857,0.046-1.355
			c0.009-0.24,0.132-1.15,0-1.354c-0.071-0.109-0.296-0.215-0.445-0.35c-0.38-0.352-0.706-0.711-0.932-1.029
			c-0.904-0.035-1.807,0.133-2.709,0.047c-0.191-0.457-0.441-0.92-0.538-1.377c0.639-0.629,1.276-1.217,1.915-1.773
			c0.024-0.336-0.069-0.654-0.069-1.053c-0.001-0.254,0.171-0.863,0.045-1.072c-0.175-0.303-0.647-0.58-0.958-0.863
			c-0.318-0.299-0.63-0.59-0.957-0.865c0.145-0.475,0.351-0.951,0.583-1.424c0.411-0.033,0.845,0.027,1.354,0.047
			c0.286,0.01,1.147,0.135,1.378-0.025c0.266-0.182,0.522-0.648,0.888-0.98c0.106-0.096,0.372-0.238,0.442-0.35
			c0.084-0.131,0.032-0.449,0.024-0.678c-0.025-0.738-0.117-1.398-0.047-2.055c0.46-0.182,0.918-0.436,1.378-0.537
			c0.63,0.639,1.203,1.275,1.774,1.914c0.7-0.045,1.402-0.047,2.101,0c0.577-0.646,1.159-1.293,1.799-1.938
			C145.243,704.408,145.695,704.592,146.146,704.789z M140.498,711.654c-0.978,0.988-0.635,2.873,0.862,3.34
			c1.887,0.584,3.704-2.107,1.706-3.574C142.335,710.885,141.267,710.873,140.498,711.654z"/>
		<path fill-rule="evenodd" clip-rule="evenodd" fill="#2A928E" d="M118.42,726.621c-0.273-0.273-0.545-0.543-0.817-0.816
			c0.048-0.057-0.09-0.109-0.116-0.166c0.392-0.791,0.711-1.586,1.12-2.379c-0.342-0.631-0.618-1.262-0.771-1.891
			c-0.818-0.32-1.634-0.605-2.453-0.912c-0.139-0.521-0.097-1.043-0.023-1.564c0.818-0.316,1.636-0.605,2.453-0.91
			c0.205-0.623,0.401-1.246,0.793-1.867c-0.359-0.811-0.748-1.621-1.12-2.432c0.056-0.084,0.23-0.17,0.21-0.256
			c0.209-0.209,0.419-0.418,0.629-0.629c0.245-0.301,0.545-0.09,0.84,0.045c0.592,0.27,1.42,0.709,1.846,0.863
			c0.622-0.381,1.245-0.594,1.868-0.793c0.311-0.818,0.587-1.635,0.911-2.453c0.52-0.07,1.042-0.113,1.564,0.023
			c0.301,0.818,0.587,1.635,0.91,2.453c0.615,0.166,1.23,0.396,1.845,0.77c0.817-0.33,1.635-0.785,2.453-1.096
			c0.38,0.312,0.752,0.697,1.074,1.072c-0.375,0.811-0.749,1.619-1.121,2.43c0.394,0.623,0.591,1.244,0.794,1.867
			c0.816,0.312,1.634,0.588,2.451,0.91c0.077,0.523,0.118,1.045-0.023,1.564c-0.81,0.303-1.619,0.605-2.428,0.889
			c-0.212,0.625-0.384,1.244-0.793,1.867c0.336,0.818,0.797,1.635,1.096,2.453c-0.29,0.361-0.713,0.781-1.072,1.072
			c-0.81-0.367-1.621-0.748-2.429-1.119c-0.623,0.4-1.246,0.609-1.869,0.793c-0.295,0.834-0.611,1.666-0.911,2.498
			c-0.521,0.004-1.043,0.047-1.564-0.023c-0.273-0.832-0.596-1.664-0.911-2.496c-0.616-0.152-1.23-0.381-1.846-0.771
			c-0.793,0.371-1.586,0.709-2.38,1.119C118.561,726.768,118.491,726.58,118.42,726.621z M123.93,717.748
			c-1.383,0.445-1.742,2.18-0.957,3.152c0.527,0.656,1.439,0.867,2.006,0.748c1.832-0.389,2.026-2.596,0.795-3.551
			C125.168,717.629,124.426,717.588,123.93,717.748z"/>
	</g>
	<g>
		<path fill-rule="evenodd" clip-rule="evenodd" fill="#2A928E" d="M149.446,699.24c0.195,0,0.086,0.012,0.195,0
			c3.233,0.809,6.312,2.102,8.947,3.695c2.45,1.48,5.414,3.307,6.03,6.613c-0.595,1.09-2.394,0.977-3.113,1.945
			c0.632,2.609,1.845,4.639,1.751,7.975c0,0.193,0.002,0.084,0,0.193c0.784,4.088-2.027,8.412-0.195,12.061
			c0.901,1.795,4.41,3.33,4.474,5.252c0.083,2.445-2.804,2.307-4.279,3.891c0.013,1.842,1.707,2.816,0.778,4.475
			c-0.535,0.262-0.446,0.236-0.584,0.582c0.235,0.609,0.721,0.967,0.584,1.947c-0.443,0.4-0.746,0.939-1.751,0.777
			c0.05,1.385,0.536,1.83,0.389,3.111c-0.625,5.488-6.939,1.645-11.282,3.502c-2.936,1.254-3.149,2.92-4.084,6.029
			c-8.504-1.74-16.445-4.043-24.898-5.836c1.475-4.012,1.201-9.875-1.167-12.643c0,0-0.14-0.135-0.195-0.195
			c-3.763-3.045-7.287-6.328-9.337-11.086c-0.135-0.061-0.135-0.061-0.194-0.195c-5.988-13.404,3.027-27.449,13.421-30.732
			c0.243-0.311,0.243-0.311,0.39-0.391C131.748,697.795,142.182,697.047,149.446,699.24z M137.581,700.795
			c-2.747-1.625-5.029,0.373-7.002,0.973c-0.986,0.301-2.073,0.154-2.724,0.389c-0.978,0.354-1.751,1.383-2.723,1.752
			c-1.477,0.561-3.016,0.537-4.28,1.361c-1.492,0.971-2.158,2.186-2.917,3.5c-2.778,0.783-3.151,3.18-4.279,5.836
			c-1.014,2.387-3.033,4.424-1.362,7.197c-1.66,9.379,6.735,14.988,14.978,12.061c2.161-0.768,3.857-3.297,6.419-4.279
			c1.484-0.57,3.521-0.453,5.251-0.973c1.414-0.426,2.483-1.58,3.501-1.75c2.017-0.34,4.032,1.385,5.835,1.361
			c0.896-0.012,1.702-0.676,2.723-0.779c1.093-0.109,2.302,0.379,3.307,0.195c1.971-0.361,4.39-2.27,5.252-4.279
			c0.516-1.203,0.258-2.527,0.584-4.086c0.223-1.064,0.734-1.838,0.778-2.527c0.203-3.223-1.18-3.221-2.334-5.447
			c-0.677-1.305-0.733-2.592-1.556-3.5c-0.655-0.725-1.836-0.939-2.723-1.752c-1.146-1.049-1.557-2.221-2.528-2.723
			c-1.063-0.549-2.503-0.936-3.696-0.584C146.44,700.225,141.036,699.15,137.581,700.795z"/>
	</g>
</g>
<text transform="matrix(1 0 0 1 191.1406 823.8145)"><tspan x="0" y="0" fill="#E5E5E5" font-family="'HelveticaNeue'" font-size="14.8192">FASE DE </tspan><tspan x="0" y="17.783" fill="#E5E5E5" font-family="'HelveticaNeue'" font-size="14.8192">PLANEJA-</tspan><tspan x="0" y="35.566" fill="#E5E5E5" font-family="'HelveticaNeue'" font-size="14.8192">MENTO </tspan><tspan x="0" y="53.348" fill="#E5E5E5" font-family="'HelveticaNeue'" font-size="14.8192">DE ALTA</tspan></text>
<text transform="matrix(1 0 0 1 301.7773 841.3301)"><tspan x="0" y="0" fill="#E5E5E5" font-family="'HelveticaNeue'" font-size="14.8192">AVISO COM </tspan><tspan x="-12.737" y="17.783" fill="#E5E5E5" font-family="'HelveticaNeue'" font-size="14.8192">ANTECEDÊNCIA</tspan></text>
<g>
	<path fill="#2A928E" d="M441.105,819.84c-2.042-1.91-4.739-2.865-8.099-2.865c-3.554,0-6.418,0.873-8.59,2.613
		c-2.173,1.746-3.87,3.955-5.088,6.621c-1.217,2.668-2.059,5.545-2.517,8.643c-0.463,3.09-0.726,5.988-0.791,8.688l0.198,0.197
		c1.975-3.227,4.427-5.564,7.358-7.012c2.927-1.445,6.302-2.174,10.12-2.174c3.359,0,6.37,0.58,9.036,1.732
		c2.667,1.152,4.905,2.746,6.716,4.787c1.81,2.039,3.208,4.439,4.196,7.209c0.987,2.764,1.48,5.762,1.48,8.988
		c0,2.564-0.395,5.23-1.184,7.994c-0.79,2.768-2.09,5.285-3.901,7.557c-1.812,2.27-4.214,4.146-7.208,5.625
		c-2.996,1.486-6.7,2.225-11.109,2.225c-5.202,0-9.381-1.053-12.542-3.158c-3.161-2.107-5.596-4.809-7.308-8.096
		c-1.714-3.295-2.85-6.916-3.406-10.863c-0.562-3.951-0.842-7.77-0.842-11.459c0-4.803,0.412-9.459,1.234-13.973
		c0.824-4.508,2.224-8.506,4.197-11.996c1.975-3.492,4.607-6.289,7.9-8.396c3.292-2.105,7.44-3.158,12.443-3.158
		c5.794,0,10.4,1.529,13.824,4.59c3.424,3.062,5.398,7.49,5.927,13.285h-8.396C444.365,824.281,443.146,821.75,441.105,819.84z
		 M425.896,843.191c-1.776,0.824-3.293,1.943-4.542,3.357c-1.251,1.416-2.188,3.096-2.812,5.037
		c-0.628,1.943-0.941,3.998-0.941,6.174c0,2.168,0.331,4.213,0.989,6.123s1.596,3.553,2.813,4.938
		c1.217,1.379,2.73,2.482,4.544,3.309c1.809,0.824,3.865,1.234,6.173,1.234c2.302,0,4.327-0.41,6.073-1.234
		c1.742-0.826,3.209-1.959,4.393-3.41c1.186-1.447,2.09-3.109,2.717-4.986c0.625-1.875,0.938-3.834,0.938-5.877
		c0-2.17-0.282-4.229-0.839-6.172c-0.562-1.938-1.432-3.617-2.618-5.035c-1.184-1.418-2.666-2.551-4.443-3.408
		c-1.776-0.854-3.851-1.283-6.22-1.283C429.75,841.957,427.674,842.373,425.896,843.191z"/>
</g>
<g>
	<polygon fill="#58ACA9" points="131.707,818.506 115.328,834.885 115.328,865.885 162.708,865.885 162.708,818.506 	"/>
	<polygon fill="#006C68" points="131.707,818.506 115.328,834.885 131.707,834.885 	"/>
</g>
<path fill="none" stroke="#58ACA9" stroke-width="0.741" stroke-miterlimit="10" d="M129.582,990.449"/>
<path fill="none" stroke="#58ACA9" stroke-width="0.741" stroke-miterlimit="10" d="M475.612,904.498"/>
<rect x="228.264" y="1008.596" fill="#38699D" width="260.19" height="71.098"/>
<polygon fill="#658BB5" points="287.966,1008.596 165.431,1008.596 184.907,1012.678 165.431,1050.713 155.763,1079.693 
	287.966,1079.693 323.516,1044.145 "/>
<g>
	<polygon fill="#DCDBDB" points="119.03,1069.395 119.03,1025.383 141.035,1047.389 	"/>
	<polygon fill="#FFFFFF" points="127.837,1028.951 127.837,1034.191 141.035,1047.389 127.837,1060.586 127.837,1065.826 
		146.275,1047.389 	"/>
</g>
<circle fill="#DCDBDB" cx="464.315" cy="1045.906" r="45.132"/>
<text transform="matrix(1 0 0 1 186.6763 1030.2168)"><tspan x="0" y="0" fill="#E5E5E5" font-family="'HelveticaNeue'" font-size="14.8192">OCORRENDO </tspan><tspan x="0" y="17.783" fill="#E5E5E5" font-family="'HelveticaNeue'" font-size="14.8192">EM GRÁVIDAS E </tspan><tspan x="0" y="35.566" fill="#E5E5E5" font-family="'HelveticaNeue'" font-size="14.8192">AMAMENTAÇÃO</tspan></text>
<text transform="matrix(1 0 0 1 320.5303 1040.9531)"><tspan x="0" y="0" fill="#E5E5E5" font-family="'HelveticaNeue'" font-size="14.8192">TRATAMENTO</tspan><tspan x="3.016" y="17.783" fill="#E5E5E5" font-family="'HelveticaNeue'" font-size="14.8192">DE ESCOLHA</tspan></text>
<g>
	<path fill="#38699D" d="M178.487,1028.895c-3.197,4.965-6.036,10.268-8.518,15.912c-2.483,5.646-4.506,11.461-6.069,17.443
		c-1.566,5.984-2.517,11.799-2.856,17.443h-9.69c0.408-6.121,1.41-12.088,3.009-17.902c1.598-5.814,3.655-11.391,6.172-16.729
		c2.515-5.338,5.422-10.387,8.721-15.148c3.298-4.76,6.851-9.146,10.66-13.158h-37.946v-8.16h46.821v7.445
		C185.117,1019.646,181.682,1023.932,178.487,1028.895z"/>
</g>
<path fill="#38699D" d="M466.021,1016.537h-7.9v7.494h-19.206l-3.758,6.506l3.758,6.508h19.206v36.914h-16.318v4.281h40.99v-4.281
	h-16.771V1016.537z M491.882,1024.031h-22.543v13.014h22.543l3.757-6.508L491.882,1024.031z M469.339,1041.738v13.016h15.542
	l3.757-6.508l-3.757-6.508H469.339z"/>
<circle fill="#C12026" stroke="#FFFFFF" stroke-width="3.7048" stroke-miterlimit="10" cx="475.612" cy="904.498" r="6.137"/>
<circle fill="#C12026" stroke="#FFFFFF" stroke-width="3.7048" stroke-miterlimit="10" cx="129.582" cy="990.449" r="6.137"/>
<circle fill="#C12026" stroke="#FFFFFF" stroke-width="3.7048" stroke-miterlimit="10" cx="475.613" cy="554.023" r="6.137"/>
<circle fill="#C12026" stroke="#FFFFFF" stroke-width="3.7048" stroke-miterlimit="10" cx="130.033" cy="465.162" r="6.137"/>
<rect x="115.328" y="1112.707" fill="#3F403F" width="373.126" height="7.092"/>
<g>
	<path fill="#2A928E" d="M154.117,624.891c-2.718,0-5.222,0.91-7.229,2.439c-3.437-1.436-6.784-2.939-8.488-3.994
		c-1.198-0.744-2.89-2.045-4.732-3.559c0.899-1.922,1.405-4.064,1.405-6.326c0-1.957-0.38-3.822-1.064-5.535
		c1.884-1.82,3.636-3.412,4.839-4.287c1.506-1.096,4.285-2.645,7.257-4.191c2.119,1.92,4.929,3.088,8.012,3.088
		c6.594,0,11.94-5.346,11.94-11.939c0-6.596-5.346-11.941-11.94-11.941c-6.595,0-11.941,5.346-11.941,11.941
		c0,0.576,0.043,1.143,0.123,1.697c-2.593,2.6-5.197,5.078-6.796,6.242c-1.272,0.926-3.422,2.158-5.826,3.438
		c-2.585-2.146-5.906-3.438-9.529-3.438c-8.244,0-14.926,6.684-14.926,14.926c0,8.244,6.682,14.926,14.926,14.926
		c3.326,0,6.397-1.09,8.879-2.928c2.445,1.074,4.626,2.113,5.912,2.91c1.769,1.096,4.658,3.449,7.518,5.904
		c-0.181,0.828-0.28,1.688-0.28,2.568c0,6.596,5.347,11.941,11.941,11.941c6.594,0,11.94-5.346,11.94-11.941
		C166.058,630.238,160.711,624.891,154.117,624.891z"/>
	<g>
		<path fill="#DCDBDB" d="M154.404,585.018l4.02,10.289h-1.513l-1.124-3.098h-4.352l-1.153,3.098h-1.398l4.006-10.289H154.404z
			 M155.354,591.057l-1.715-4.799h-0.028l-1.744,4.799H155.354z"/>
	</g>
	<g>
		<path fill="#DCDBDB" d="M153.827,631.854c0.221,0,0.458,0.004,0.713,0.008c0.254,0.006,0.506,0.02,0.757,0.043
			c0.25,0.025,0.482,0.061,0.699,0.109c0.216,0.047,0.401,0.121,0.554,0.215c0.337,0.201,0.622,0.48,0.858,0.836
			c0.235,0.355,0.353,0.793,0.353,1.311c0,0.549-0.132,1.023-0.396,1.422s-0.641,0.693-1.131,0.885v0.029
			c0.634,0.135,1.119,0.422,1.455,0.865c0.336,0.441,0.505,0.98,0.505,1.613c0,0.375-0.067,0.74-0.202,1.096
			c-0.135,0.355-0.333,0.67-0.598,0.943c-0.265,0.273-0.591,0.496-0.98,0.664c-0.389,0.168-0.838,0.25-1.347,0.25h-4.972v-10.289
			H153.827z M154.201,636.279c0.778,0,1.338-0.137,1.679-0.412c0.341-0.271,0.512-0.686,0.512-1.232
			c0-0.363-0.058-0.652-0.173-0.863s-0.273-0.375-0.475-0.49c-0.202-0.115-0.435-0.189-0.699-0.223
			c-0.264-0.035-0.545-0.051-0.843-0.051h-2.737v3.271H154.201z M154.893,640.99c0.606,0,1.079-0.162,1.42-0.49
			c0.341-0.326,0.511-0.777,0.511-1.354c0-0.336-0.062-0.615-0.187-0.836c-0.125-0.221-0.291-0.396-0.498-0.525
			c-0.207-0.131-0.444-0.221-0.713-0.275c-0.27-0.053-0.548-0.078-0.835-0.078h-3.127v3.559H154.893z"/>
	</g>
	<path fill="#DCDBDB" d="M129.061,619.328c-0.408-1.541-4.306-2.547-6.319-3.332c-0.641-0.25-0.798-1.248-0.805-2.092
		c0.29-0.215,0.547-0.527,0.803-0.932c0.369-0.58,0.73-1.035,1.02-1.789c0.184-0.025,0.392-0.174,0.503-0.371
		c0.44-0.775,0.667-1.998,0.524-2.389c-0.078-0.213-0.301-0.266-0.486-0.27c0.107-2.785-1.193-4.447-2.839-5.076
		c-0.369-0.156-0.992-0.395-1.855-0.625c-0.476-0.127-0.845-0.383-0.886-0.617c-0.211,0.041-0.762,0.771-0.487,1.152
		c0.005,0-1.357-0.062-1.586,0.807c-0.042,0.041,0.101,0.006,0.274-0.016c-1.033,0.867-1.724,2.312-1.645,4.375
		c-0.193-0.006-0.452,0.033-0.539,0.268c-0.143,0.391,0.085,1.609,0.525,2.387c0.12,0.213,0.352,0.363,0.546,0.369
		c0.281,0.752,0.634,1.197,1,1.777c0.282,0.447,0.567,0.762,0.895,0.979c-0.021,0.768-0.2,1.635-0.866,1.826
		c-1.243,0.359-5.778,1.779-6.339,3.568c-0.336,1.072-0.336,1.771-0.336,1.771c0,0.771,0.651,1.398,1.453,1.398h16.342
		c0.802,0,1.453-0.627,1.453-1.398C129.412,620.748,129.363,620.469,129.061,619.328z"/>
</g>
<g>
	<path fill="#FFFFFF" d="M141.027,51.869c-0.727-0.507-1.59-0.76-2.59-0.76c-0.854,0-1.583,0.16-2.19,0.48
		c-0.607,0.32-1.107,0.75-1.5,1.29c-0.394,0.54-0.684,1.157-0.87,1.85c-0.187,0.693-0.28,1.414-0.28,2.16
		c0,0.813,0.093,1.583,0.28,2.31c0.187,0.727,0.477,1.36,0.87,1.9c0.393,0.54,0.896,0.97,1.51,1.29c0.613,0.32,1.347,0.48,2.2,0.48
		c0.626,0,1.183-0.104,1.67-0.31c0.486-0.207,0.907-0.493,1.26-0.86c0.354-0.366,0.63-0.803,0.83-1.31
		c0.2-0.506,0.32-1.053,0.36-1.64h1.9c-0.187,1.8-0.807,3.2-1.86,4.2s-2.493,1.5-4.32,1.5c-1.107,0-2.073-0.19-2.9-0.57
		c-0.827-0.38-1.514-0.903-2.06-1.57c-0.547-0.667-0.957-1.453-1.23-2.36c-0.273-0.906-0.41-1.88-0.41-2.92s0.146-2.017,0.44-2.93
		c0.293-0.914,0.723-1.71,1.29-2.39c0.567-0.68,1.273-1.217,2.12-1.61c0.847-0.394,1.816-0.59,2.91-0.59c0.747,0,1.453,0.1,2.12,0.3
		c0.667,0.2,1.26,0.493,1.78,0.88s0.953,0.87,1.3,1.45c0.347,0.58,0.573,1.25,0.68,2.01h-1.9
		C142.224,53.136,141.754,52.376,141.027,51.869z"/>
	<path fill="#FFFFFF" d="M146.317,56.839c0.213-0.66,0.533-1.233,0.96-1.72s0.953-0.87,1.58-1.15c0.626-0.28,1.347-0.42,2.16-0.42
		c0.826,0,1.55,0.14,2.17,0.42c0.62,0.28,1.143,0.664,1.57,1.15s0.747,1.06,0.96,1.72s0.32,1.37,0.32,2.13
		c0,0.76-0.106,1.467-0.32,2.12s-0.533,1.224-0.96,1.71c-0.427,0.487-0.95,0.867-1.57,1.14c-0.62,0.273-1.344,0.41-2.17,0.41
		c-0.813,0-1.534-0.137-2.16-0.41c-0.627-0.273-1.153-0.653-1.58-1.14c-0.427-0.486-0.747-1.057-0.96-1.71
		c-0.213-0.653-0.32-1.36-0.32-2.12C145.997,58.209,146.104,57.499,146.317,56.839z M148.047,60.639
		c0.167,0.487,0.396,0.894,0.69,1.22c0.293,0.327,0.637,0.577,1.03,0.75c0.393,0.173,0.81,0.26,1.25,0.26
		c0.44,0,0.856-0.087,1.25-0.26c0.393-0.173,0.736-0.423,1.03-0.75c0.293-0.327,0.523-0.733,0.69-1.22
		c0.167-0.486,0.25-1.043,0.25-1.67c0-0.626-0.083-1.183-0.25-1.67c-0.167-0.486-0.397-0.896-0.69-1.23
		c-0.293-0.333-0.637-0.586-1.03-0.76c-0.394-0.173-0.81-0.26-1.25-0.26c-0.44,0-0.857,0.087-1.25,0.26
		c-0.394,0.173-0.737,0.427-1.03,0.76c-0.293,0.333-0.523,0.744-0.69,1.23c-0.167,0.487-0.25,1.043-0.25,1.67
		C147.797,59.596,147.88,60.152,148.047,60.639z"/>
	<path fill="#FFFFFF" d="M159.637,53.789v1.52h0.04c0.773-1.173,1.887-1.76,3.34-1.76c0.64,0,1.22,0.133,1.74,0.4
		c0.52,0.267,0.887,0.72,1.1,1.36c0.347-0.56,0.803-0.993,1.37-1.3c0.566-0.307,1.19-0.46,1.87-0.46c0.52,0,0.99,0.057,1.41,0.17
		c0.42,0.114,0.78,0.29,1.08,0.53c0.3,0.24,0.533,0.55,0.7,0.93c0.167,0.38,0.25,0.837,0.25,1.37v7.58h-1.7v-6.78
		c0-0.32-0.027-0.62-0.08-0.9c-0.053-0.28-0.153-0.523-0.3-0.73c-0.147-0.207-0.35-0.37-0.61-0.49c-0.26-0.12-0.597-0.18-1.01-0.18
		c-0.84,0-1.5,0.24-1.98,0.72s-0.72,1.12-0.72,1.92v6.44h-1.7v-6.78c0-0.333-0.03-0.64-0.09-0.92c-0.06-0.28-0.163-0.523-0.31-0.73
		c-0.146-0.207-0.343-0.366-0.59-0.48c-0.247-0.113-0.563-0.17-0.95-0.17c-0.494,0-0.917,0.1-1.27,0.3
		c-0.354,0.2-0.64,0.44-0.86,0.72c-0.22,0.28-0.38,0.57-0.48,0.87c-0.1,0.3-0.15,0.55-0.15,0.75v6.44h-1.7v-10.34H159.637z"/>
	<path fill="#FFFFFF" d="M174.857,56.839c0.213-0.66,0.533-1.233,0.96-1.72s0.953-0.87,1.58-1.15c0.626-0.28,1.347-0.42,2.16-0.42
		c0.826,0,1.55,0.14,2.17,0.42c0.62,0.28,1.143,0.664,1.57,1.15s0.747,1.06,0.96,1.72s0.32,1.37,0.32,2.13
		c0,0.76-0.106,1.467-0.32,2.12s-0.533,1.224-0.96,1.71c-0.427,0.487-0.95,0.867-1.57,1.14c-0.62,0.273-1.344,0.41-2.17,0.41
		c-0.813,0-1.534-0.137-2.16-0.41c-0.627-0.273-1.153-0.653-1.58-1.14c-0.427-0.486-0.747-1.057-0.96-1.71
		c-0.213-0.653-0.32-1.36-0.32-2.12C174.537,58.209,174.644,57.499,174.857,56.839z M176.587,60.639
		c0.167,0.487,0.396,0.894,0.69,1.22c0.293,0.327,0.637,0.577,1.03,0.75c0.393,0.173,0.81,0.26,1.25,0.26
		c0.44,0,0.856-0.087,1.25-0.26c0.393-0.173,0.736-0.423,1.03-0.75c0.293-0.327,0.523-0.733,0.69-1.22
		c0.167-0.486,0.25-1.043,0.25-1.67c0-0.626-0.083-1.183-0.25-1.67c-0.167-0.486-0.397-0.896-0.69-1.23
		c-0.293-0.333-0.637-0.586-1.03-0.76c-0.394-0.173-0.81-0.26-1.25-0.26c-0.44,0-0.857,0.087-1.25,0.26
		c-0.394,0.173-0.737,0.427-1.03,0.76c-0.293,0.333-0.523,0.744-0.69,1.23c-0.167,0.487-0.25,1.043-0.25,1.67
		C176.337,59.596,176.42,60.152,176.587,60.639z"/>
	<path fill="#FFFFFF" d="M199.097,64.129v-1.64h-0.04c-0.36,0.64-0.82,1.11-1.38,1.41s-1.22,0.45-1.98,0.45
		c-0.68,0-1.247-0.09-1.7-0.27c-0.454-0.18-0.82-0.437-1.1-0.77c-0.28-0.333-0.477-0.73-0.59-1.19c-0.114-0.46-0.17-0.97-0.17-1.53
		v-6.8h1.7v7c0,0.64,0.187,1.146,0.56,1.52c0.373,0.373,0.887,0.56,1.54,0.56c0.52,0,0.97-0.08,1.35-0.24
		c0.38-0.16,0.696-0.387,0.95-0.68c0.253-0.293,0.443-0.636,0.57-1.03c0.126-0.393,0.19-0.823,0.19-1.29v-5.84h1.7v10.34H199.097z"
		/>
	<path fill="#FFFFFF" d="M207.677,53.789v1.5h-2.06v6.42c0,0.2,0.017,0.36,0.05,0.48s0.097,0.213,0.19,0.28
		c0.093,0.067,0.223,0.11,0.39,0.13c0.167,0.02,0.383,0.03,0.65,0.03h0.78v1.5h-1.3c-0.44,0-0.817-0.03-1.13-0.09
		c-0.313-0.06-0.567-0.17-0.76-0.33s-0.336-0.387-0.43-0.68c-0.094-0.293-0.14-0.68-0.14-1.16v-6.58h-1.76v-1.5h1.76v-3.1h1.7v3.1
		H207.677z"/>
	<path fill="#FFFFFF" d="M209.656,51.929v-2.08h1.7v2.08H209.656z M211.356,53.789v10.34h-1.7v-10.34H211.356z"/>
	<path fill="#FFFFFF" d="M215.796,49.849v14.28h-1.7v-14.28H215.796z"/>
	<path fill="#FFFFFF" d="M218.536,51.929v-2.08h1.7v2.08H218.536z M220.236,53.789v10.34h-1.7v-10.34H220.236z"/>
	<path fill="#FFFFFF" d="M228.275,55.289h-5.84v-1.5h8.04v1.16l-6.32,7.68h6.6v1.5h-8.72v-1.3L228.275,55.289z"/>
	<path fill="#FFFFFF" d="M240.416,64.349c-0.44,0-0.79-0.124-1.05-0.37c-0.26-0.247-0.39-0.65-0.39-1.21
		c-0.467,0.56-1.01,0.963-1.63,1.21s-1.29,0.37-2.01,0.37c-0.467,0-0.907-0.05-1.32-0.15c-0.413-0.1-0.777-0.267-1.09-0.5
		c-0.313-0.233-0.56-0.533-0.74-0.9c-0.18-0.367-0.27-0.81-0.27-1.33c0-0.586,0.1-1.066,0.3-1.44c0.2-0.373,0.463-0.676,0.79-0.91
		c0.327-0.233,0.7-0.41,1.12-0.53c0.42-0.12,0.85-0.22,1.29-0.3c0.466-0.093,0.91-0.163,1.33-0.21c0.42-0.047,0.79-0.113,1.11-0.2
		c0.32-0.086,0.573-0.213,0.76-0.38c0.187-0.167,0.28-0.41,0.28-0.73c0-0.373-0.07-0.673-0.21-0.9c-0.14-0.227-0.32-0.4-0.54-0.52
		c-0.22-0.12-0.467-0.2-0.74-0.24c-0.273-0.04-0.543-0.06-0.81-0.06c-0.72,0-1.32,0.137-1.8,0.41s-0.74,0.79-0.78,1.55h-1.7
		c0.026-0.64,0.16-1.18,0.4-1.62c0.24-0.44,0.56-0.796,0.96-1.07c0.4-0.273,0.86-0.47,1.38-0.59s1.067-0.18,1.64-0.18
		c0.467,0,0.93,0.034,1.39,0.1c0.46,0.067,0.876,0.204,1.25,0.41c0.373,0.207,0.673,0.497,0.9,0.87c0.227,0.374,0.34,0.86,0.34,1.46
		v5.32c0,0.4,0.023,0.693,0.07,0.88c0.046,0.187,0.203,0.28,0.47,0.28c0.146,0,0.32-0.033,0.52-0.1v1.32
		C241.342,64.262,240.936,64.349,240.416,64.349z M238.035,59.139c-0.347,0.074-0.71,0.134-1.09,0.18
		c-0.38,0.047-0.764,0.1-1.15,0.16c-0.387,0.06-0.733,0.157-1.04,0.29c-0.307,0.133-0.557,0.323-0.75,0.57
		c-0.193,0.247-0.29,0.583-0.29,1.01c0,0.28,0.057,0.517,0.17,0.71s0.26,0.35,0.44,0.47c0.18,0.12,0.393,0.207,0.64,0.26
		c0.247,0.053,0.497,0.08,0.75,0.08c0.56,0,1.04-0.077,1.44-0.23c0.4-0.153,0.727-0.346,0.98-0.58s0.44-0.487,0.56-0.76
		c0.12-0.273,0.18-0.53,0.18-0.77v-1.74C238.662,58.949,238.382,59.066,238.035,59.139z"/>
	<path fill="#FFFFFF" d="M244.755,53.789v2.18h0.04c0.413-0.84,0.92-1.46,1.52-1.86s1.36-0.586,2.28-0.56v1.8
		c-0.68,0-1.26,0.093-1.74,0.28c-0.48,0.187-0.867,0.46-1.16,0.82c-0.293,0.36-0.507,0.797-0.64,1.31
		c-0.134,0.514-0.2,1.104-0.2,1.77v4.6h-1.7v-10.34H244.755z"/>
	<path fill="#FFFFFF" d="M263.375,64.349c-0.44,0-0.79-0.124-1.05-0.37c-0.26-0.247-0.39-0.65-0.39-1.21
		c-0.467,0.56-1.01,0.963-1.63,1.21s-1.29,0.37-2.01,0.37c-0.467,0-0.907-0.05-1.32-0.15c-0.413-0.1-0.777-0.267-1.09-0.5
		c-0.313-0.233-0.56-0.533-0.74-0.9c-0.18-0.367-0.27-0.81-0.27-1.33c0-0.586,0.1-1.066,0.3-1.44c0.2-0.373,0.463-0.676,0.79-0.91
		c0.327-0.233,0.7-0.41,1.12-0.53c0.42-0.12,0.85-0.22,1.29-0.3c0.466-0.093,0.91-0.163,1.33-0.21c0.42-0.047,0.79-0.113,1.11-0.2
		c0.32-0.086,0.573-0.213,0.76-0.38c0.187-0.167,0.28-0.41,0.28-0.73c0-0.373-0.07-0.673-0.21-0.9c-0.14-0.227-0.32-0.4-0.54-0.52
		c-0.22-0.12-0.467-0.2-0.74-0.24c-0.273-0.04-0.543-0.06-0.81-0.06c-0.72,0-1.32,0.137-1.8,0.41s-0.74,0.79-0.78,1.55h-1.7
		c0.026-0.64,0.16-1.18,0.4-1.62c0.24-0.44,0.56-0.796,0.96-1.07c0.4-0.273,0.86-0.47,1.38-0.59s1.067-0.18,1.64-0.18
		c0.467,0,0.93,0.034,1.39,0.1c0.46,0.067,0.876,0.204,1.25,0.41c0.373,0.207,0.673,0.497,0.9,0.87c0.227,0.374,0.34,0.86,0.34,1.46
		v5.32c0,0.4,0.023,0.693,0.07,0.88c0.046,0.187,0.203,0.28,0.47,0.28c0.146,0,0.32-0.033,0.52-0.1v1.32
		C264.301,64.262,263.895,64.349,263.375,64.349z M260.995,59.139c-0.347,0.074-0.71,0.134-1.09,0.18
		c-0.38,0.047-0.764,0.1-1.15,0.16c-0.387,0.06-0.733,0.157-1.04,0.29c-0.307,0.133-0.557,0.323-0.75,0.57
		c-0.193,0.247-0.29,0.583-0.29,1.01c0,0.28,0.057,0.517,0.17,0.71s0.26,0.35,0.44,0.47c0.18,0.12,0.393,0.207,0.64,0.26
		c0.247,0.053,0.497,0.08,0.75,0.08c0.56,0,1.04-0.077,1.44-0.23c0.4-0.153,0.727-0.346,0.98-0.58s0.44-0.487,0.56-0.76
		c0.12-0.273,0.18-0.53,0.18-0.77v-1.74C261.622,58.949,261.341,59.066,260.995,59.139z"/>
	<path fill="#FFFFFF" d="M278.274,49.849c1.44,0,2.53,0.37,3.27,1.11c0.74,0.74,1.11,1.777,1.11,3.11c0,1.333-0.37,2.374-1.11,3.12
		c-0.74,0.747-1.83,1.113-3.27,1.1h-4.36v5.84h-1.9v-14.28H278.274z M277.635,56.689c1.08,0.013,1.87-0.207,2.37-0.66
		c0.5-0.453,0.75-1.106,0.75-1.96c0-0.853-0.25-1.503-0.75-1.95s-1.29-0.67-2.37-0.67h-3.72v5.24H277.635z"/>
	<path fill="#FFFFFF" d="M285.995,61.819c0.16,0.26,0.37,0.467,0.63,0.62c0.26,0.153,0.553,0.263,0.88,0.33s0.663,0.1,1.01,0.1
		c0.267,0,0.546-0.02,0.84-0.06c0.293-0.04,0.563-0.113,0.81-0.22c0.247-0.106,0.45-0.263,0.61-0.47c0.16-0.207,0.24-0.47,0.24-0.79
		c0-0.44-0.167-0.773-0.5-1c-0.333-0.227-0.75-0.41-1.25-0.55s-1.043-0.267-1.63-0.38c-0.587-0.113-1.13-0.273-1.63-0.48
		c-0.5-0.207-0.917-0.497-1.25-0.87c-0.333-0.373-0.5-0.893-0.5-1.56c0-0.52,0.117-0.966,0.35-1.34
		c0.233-0.373,0.533-0.677,0.9-0.91c0.367-0.233,0.78-0.406,1.24-0.52c0.46-0.113,0.917-0.17,1.37-0.17
		c0.586,0,1.126,0.05,1.62,0.15c0.493,0.1,0.93,0.273,1.31,0.52c0.38,0.247,0.683,0.58,0.91,1c0.227,0.42,0.36,0.943,0.4,1.57h-1.7
		c-0.027-0.333-0.114-0.61-0.26-0.83c-0.147-0.22-0.333-0.396-0.56-0.53c-0.227-0.133-0.477-0.23-0.75-0.29
		c-0.273-0.06-0.55-0.09-0.83-0.09c-0.253,0-0.51,0.02-0.77,0.06c-0.26,0.04-0.497,0.11-0.71,0.21s-0.387,0.233-0.52,0.4
		c-0.133,0.167-0.2,0.384-0.2,0.65c0,0.293,0.103,0.537,0.31,0.73c0.207,0.193,0.47,0.353,0.79,0.48
		c0.32,0.126,0.68,0.233,1.08,0.32c0.4,0.087,0.8,0.177,1.2,0.27c0.427,0.093,0.843,0.207,1.25,0.34
		c0.407,0.134,0.767,0.31,1.08,0.53c0.313,0.22,0.566,0.497,0.76,0.83c0.193,0.333,0.29,0.747,0.29,1.24
		c0,0.627-0.13,1.147-0.39,1.56c-0.26,0.414-0.6,0.747-1.02,1c-0.42,0.253-0.894,0.43-1.42,0.53c-0.527,0.1-1.05,0.15-1.57,0.15
		c-0.573,0-1.12-0.06-1.64-0.18s-0.98-0.316-1.38-0.59s-0.72-0.633-0.96-1.08c-0.24-0.447-0.374-0.99-0.4-1.63h1.7
		C285.748,61.242,285.834,61.559,285.995,61.819z"/>
	<path fill="#FFFFFF" d="M294.794,51.929v-2.08h1.7v2.08H294.794z M296.495,53.789v10.34h-1.7v-10.34H296.495z"/>
	<path fill="#FFFFFF" d="M305.314,55.589c-0.428-0.36-1-0.54-1.721-0.54c-0.613,0-1.127,0.113-1.539,0.34
		c-0.414,0.227-0.744,0.527-0.99,0.9c-0.248,0.373-0.424,0.803-0.531,1.29c-0.105,0.487-0.16,0.99-0.16,1.51
		c0,0.48,0.057,0.947,0.172,1.4c0.111,0.454,0.289,0.857,0.529,1.21c0.24,0.354,0.553,0.637,0.939,0.85
		c0.387,0.213,0.848,0.32,1.381,0.32c0.84,0,1.496-0.22,1.969-0.66c0.475-0.44,0.764-1.06,0.871-1.86h1.74
		c-0.188,1.28-0.664,2.267-1.43,2.96c-0.768,0.693-1.811,1.04-3.131,1.04c-0.787,0-1.484-0.127-2.09-0.38
		c-0.607-0.253-1.113-0.613-1.52-1.08c-0.408-0.466-0.715-1.023-0.92-1.67c-0.207-0.646-0.311-1.356-0.311-2.13
		c0-0.773,0.101-1.497,0.3-2.17c0.201-0.673,0.503-1.26,0.91-1.76c0.408-0.5,0.918-0.893,1.531-1.18s1.326-0.43,2.139-0.43
		c0.588,0,1.137,0.07,1.65,0.21c0.514,0.14,0.967,0.357,1.361,0.65c0.393,0.293,0.715,0.664,0.969,1.11s0.414,0.977,0.48,1.59h-1.76
		C306.021,56.456,305.74,55.949,305.314,55.589z"/>
	<path fill="#FFFFFF" d="M309.635,56.839c0.213-0.66,0.533-1.233,0.959-1.72c0.428-0.487,0.953-0.87,1.58-1.15
		c0.627-0.28,1.348-0.42,2.16-0.42c0.826,0,1.551,0.14,2.17,0.42c0.621,0.28,1.143,0.664,1.57,1.15
		c0.426,0.487,0.746,1.06,0.961,1.72c0.213,0.66,0.318,1.37,0.318,2.13c0,0.76-0.105,1.467-0.318,2.12
		c-0.215,0.653-0.535,1.224-0.961,1.71c-0.428,0.487-0.949,0.867-1.57,1.14c-0.619,0.273-1.344,0.41-2.17,0.41
		c-0.812,0-1.533-0.137-2.16-0.41s-1.152-0.653-1.58-1.14c-0.426-0.486-0.746-1.057-0.959-1.71c-0.215-0.653-0.32-1.36-0.32-2.12
		C309.314,58.209,309.42,57.499,309.635,56.839z M311.363,60.639c0.168,0.487,0.398,0.894,0.691,1.22s0.637,0.577,1.029,0.75
		s0.811,0.26,1.25,0.26s0.857-0.087,1.25-0.26s0.736-0.423,1.029-0.75c0.295-0.327,0.523-0.733,0.691-1.22
		c0.166-0.486,0.25-1.043,0.25-1.67c0-0.626-0.084-1.183-0.25-1.67c-0.168-0.486-0.396-0.896-0.691-1.23
		c-0.293-0.333-0.637-0.586-1.029-0.76s-0.811-0.26-1.25-0.26s-0.857,0.087-1.25,0.26s-0.736,0.427-1.029,0.76
		c-0.293,0.333-0.523,0.744-0.691,1.23c-0.166,0.487-0.25,1.043-0.25,1.67C311.113,59.596,311.197,60.152,311.363,60.639z"/>
	<path fill="#FFFFFF" d="M325.773,53.789v1.5h-2.061v6.42c0,0.2,0.018,0.36,0.051,0.48s0.096,0.213,0.189,0.28
		c0.094,0.067,0.225,0.11,0.391,0.13s0.383,0.03,0.65,0.03h0.779v1.5h-1.299c-0.441,0-0.818-0.03-1.131-0.09s-0.566-0.17-0.76-0.33
		s-0.338-0.387-0.43-0.68c-0.094-0.293-0.141-0.68-0.141-1.16v-6.58h-1.76v-1.5h1.76v-3.1h1.699v3.1H325.773z"/>
	<path fill="#FFFFFF" d="M334.973,63.469c-0.773,0.587-1.746,0.88-2.92,0.88c-0.826,0-1.543-0.134-2.148-0.4
		c-0.607-0.267-1.117-0.64-1.531-1.12c-0.412-0.48-0.723-1.053-0.93-1.72c-0.207-0.667-0.324-1.393-0.35-2.18
		c0-0.786,0.119-1.506,0.359-2.16s0.576-1.22,1.01-1.7s0.947-0.853,1.541-1.12c0.592-0.267,1.242-0.4,1.949-0.4
		c0.92,0,1.684,0.19,2.291,0.57c0.605,0.38,1.092,0.863,1.459,1.45c0.367,0.587,0.621,1.227,0.76,1.92
		c0.141,0.693,0.197,1.354,0.17,1.98h-7.74c-0.012,0.454,0.041,0.884,0.16,1.29c0.121,0.407,0.314,0.767,0.58,1.08
		c0.268,0.313,0.607,0.563,1.021,0.75c0.412,0.187,0.898,0.28,1.459,0.28c0.721,0,1.311-0.167,1.77-0.5
		c0.461-0.333,0.764-0.84,0.91-1.52h1.68C336.246,62.009,335.746,62.882,334.973,63.469z M334.564,56.829
		c-0.154-0.36-0.361-0.67-0.621-0.93c-0.26-0.26-0.566-0.467-0.92-0.62c-0.354-0.153-0.744-0.23-1.17-0.23
		c-0.439,0-0.836,0.077-1.189,0.23c-0.354,0.153-0.658,0.364-0.91,0.63c-0.254,0.267-0.453,0.577-0.6,0.93
		c-0.148,0.354-0.234,0.73-0.262,1.13h5.941C334.807,57.569,334.717,57.189,334.564,56.829z"/>
	<path fill="#FFFFFF" d="M339.934,53.789v2.18h0.041c0.412-0.84,0.92-1.46,1.52-1.86s1.359-0.586,2.279-0.56v1.8
		c-0.68,0-1.26,0.093-1.74,0.28c-0.479,0.187-0.867,0.46-1.16,0.82c-0.293,0.36-0.506,0.797-0.639,1.31
		c-0.135,0.514-0.201,1.104-0.201,1.77v4.6h-1.699v-10.34H339.934z"/>
	<path fill="#FFFFFF" d="M352.992,64.349c-0.439,0-0.789-0.124-1.049-0.37s-0.391-0.65-0.391-1.21
		c-0.467,0.56-1.01,0.963-1.629,1.21c-0.621,0.247-1.291,0.37-2.012,0.37c-0.467,0-0.906-0.05-1.318-0.15
		c-0.414-0.1-0.777-0.267-1.09-0.5c-0.314-0.233-0.561-0.533-0.74-0.9c-0.182-0.367-0.271-0.81-0.271-1.33
		c0-0.586,0.102-1.066,0.301-1.44c0.199-0.373,0.463-0.676,0.789-0.91c0.328-0.233,0.701-0.41,1.121-0.53s0.85-0.22,1.289-0.3
		c0.467-0.093,0.91-0.163,1.33-0.21s0.791-0.113,1.111-0.2c0.32-0.086,0.572-0.213,0.76-0.38c0.186-0.167,0.279-0.41,0.279-0.73
		c0-0.373-0.07-0.673-0.209-0.9c-0.141-0.227-0.32-0.4-0.541-0.52c-0.219-0.12-0.467-0.2-0.74-0.24s-0.543-0.06-0.809-0.06
		c-0.721,0-1.32,0.137-1.801,0.41s-0.74,0.79-0.779,1.55h-1.701c0.027-0.64,0.16-1.18,0.4-1.62c0.24-0.44,0.561-0.796,0.961-1.07
		c0.398-0.273,0.859-0.47,1.379-0.59s1.066-0.18,1.641-0.18c0.467,0,0.93,0.034,1.389,0.1c0.461,0.067,0.877,0.204,1.25,0.41
		s0.674,0.497,0.9,0.87c0.227,0.374,0.34,0.86,0.34,1.46v5.32c0,0.4,0.023,0.693,0.07,0.88c0.047,0.187,0.203,0.28,0.471,0.28
		c0.146,0,0.32-0.033,0.52-0.1v1.32C353.92,64.262,353.514,64.349,352.992,64.349z M350.613,59.139
		c-0.348,0.074-0.711,0.134-1.09,0.18c-0.381,0.047-0.764,0.1-1.15,0.16s-0.734,0.157-1.041,0.29s-0.557,0.323-0.75,0.57
		c-0.193,0.247-0.289,0.583-0.289,1.01c0,0.28,0.057,0.517,0.17,0.71s0.26,0.35,0.439,0.47s0.395,0.207,0.641,0.26
		s0.496,0.08,0.75,0.08c0.561,0,1.039-0.077,1.439-0.23c0.4-0.153,0.727-0.346,0.98-0.58s0.439-0.487,0.561-0.76
		c0.119-0.273,0.18-0.53,0.18-0.77v-1.74C351.24,58.949,350.959,59.066,350.613,59.139z"/>
	<path fill="#FFFFFF" d="M357.553,53.789v1.4h0.041c0.279-0.573,0.719-0.99,1.32-1.25c0.6-0.26,1.26-0.39,1.979-0.39
		c0.801,0,1.498,0.147,2.09,0.44c0.594,0.293,1.088,0.69,1.48,1.19s0.689,1.077,0.891,1.73c0.199,0.654,0.299,1.347,0.299,2.08
		c0,0.733-0.096,1.427-0.289,2.08c-0.193,0.653-0.486,1.224-0.881,1.71c-0.393,0.487-0.887,0.87-1.479,1.15
		c-0.594,0.28-1.283,0.42-2.07,0.42c-0.254,0-0.537-0.027-0.85-0.08c-0.314-0.054-0.625-0.14-0.932-0.26s-0.596-0.283-0.869-0.49
		s-0.504-0.463-0.689-0.77h-0.041v5.32h-1.699v-14.28H357.553z M363.664,57.459c-0.127-0.46-0.32-0.87-0.58-1.23
		c-0.262-0.36-0.594-0.646-1-0.86c-0.408-0.213-0.885-0.32-1.432-0.32c-0.572,0-1.059,0.113-1.459,0.34
		c-0.4,0.227-0.727,0.523-0.98,0.89c-0.254,0.367-0.438,0.784-0.549,1.25c-0.115,0.467-0.17,0.94-0.17,1.42
		c0,0.507,0.059,0.997,0.18,1.47c0.119,0.474,0.309,0.89,0.57,1.25c0.26,0.36,0.596,0.65,1.01,0.87c0.412,0.22,0.912,0.33,1.5,0.33
		c0.586,0,1.076-0.113,1.469-0.34c0.395-0.227,0.711-0.526,0.951-0.9c0.24-0.373,0.412-0.8,0.52-1.28
		c0.105-0.48,0.16-0.973,0.16-1.48C363.854,58.389,363.789,57.919,363.664,57.459z"/>
	<path fill="#FFFFFF" d="M367.752,51.929v-2.08h1.701v2.08H367.752z M369.453,53.789v10.34h-1.701v-10.34H369.453z"/>
	<path fill="#FFFFFF" d="M380.031,64.349c-0.439,0-0.789-0.124-1.049-0.37s-0.391-0.65-0.391-1.21
		c-0.467,0.56-1.01,0.963-1.629,1.21c-0.621,0.247-1.291,0.37-2.012,0.37c-0.467,0-0.906-0.05-1.318-0.15
		c-0.414-0.1-0.777-0.267-1.09-0.5c-0.314-0.233-0.561-0.533-0.74-0.9c-0.182-0.367-0.271-0.81-0.271-1.33
		c0-0.586,0.102-1.066,0.301-1.44c0.199-0.373,0.463-0.676,0.789-0.91c0.328-0.233,0.701-0.41,1.121-0.53s0.85-0.22,1.289-0.3
		c0.467-0.093,0.91-0.163,1.33-0.21s0.791-0.113,1.111-0.2c0.32-0.086,0.572-0.213,0.76-0.38c0.186-0.167,0.279-0.41,0.279-0.73
		c0-0.373-0.07-0.673-0.209-0.9c-0.141-0.227-0.32-0.4-0.541-0.52c-0.219-0.12-0.467-0.2-0.74-0.24s-0.543-0.06-0.809-0.06
		c-0.721,0-1.32,0.137-1.801,0.41s-0.74,0.79-0.779,1.55h-1.701c0.027-0.64,0.16-1.18,0.4-1.62c0.24-0.44,0.561-0.796,0.961-1.07
		c0.398-0.273,0.859-0.47,1.379-0.59s1.066-0.18,1.641-0.18c0.467,0,0.93,0.034,1.389,0.1c0.461,0.067,0.877,0.204,1.25,0.41
		s0.674,0.497,0.9,0.87c0.227,0.374,0.34,0.86,0.34,1.46v5.32c0,0.4,0.023,0.693,0.07,0.88c0.047,0.187,0.203,0.28,0.471,0.28
		c0.146,0,0.32-0.033,0.52-0.1v1.32C380.959,64.262,380.553,64.349,380.031,64.349z M377.652,59.139
		c-0.348,0.074-0.711,0.134-1.09,0.18c-0.381,0.047-0.764,0.1-1.15,0.16s-0.734,0.157-1.041,0.29s-0.557,0.323-0.75,0.57
		c-0.193,0.247-0.289,0.583-0.289,1.01c0,0.28,0.057,0.517,0.17,0.71s0.26,0.35,0.439,0.47s0.395,0.207,0.641,0.26
		s0.496,0.08,0.75,0.08c0.561,0,1.039-0.077,1.439-0.23c0.4-0.153,0.727-0.346,0.98-0.58s0.439-0.487,0.561-0.76
		c0.119-0.273,0.18-0.53,0.18-0.77v-1.74C378.279,58.949,377.998,59.066,377.652,59.139z"/>
	<path fill="#FFFFFF" d="M133.717,78.789v1.64h0.04c0.707-1.253,1.827-1.88,3.36-1.88c0.68,0,1.247,0.094,1.7,0.28
		c0.453,0.187,0.82,0.447,1.1,0.78c0.28,0.333,0.477,0.73,0.59,1.19s0.17,0.97,0.17,1.53v6.8h-1.7v-7c0-0.64-0.187-1.146-0.56-1.52
		c-0.374-0.373-0.887-0.56-1.54-0.56c-0.52,0-0.97,0.08-1.35,0.24c-0.38,0.16-0.697,0.387-0.95,0.68
		c-0.254,0.293-0.444,0.637-0.57,1.03c-0.127,0.394-0.19,0.823-0.19,1.29v5.84h-1.7v-10.34H133.717z"/>
	<path fill="#FFFFFF" d="M142.998,81.839c0.213-0.66,0.533-1.233,0.96-1.72s0.953-0.87,1.58-1.15c0.626-0.28,1.347-0.42,2.16-0.42
		c0.826,0,1.55,0.14,2.17,0.42c0.62,0.28,1.143,0.664,1.57,1.15s0.747,1.06,0.96,1.72s0.32,1.37,0.32,2.13
		c0,0.76-0.106,1.467-0.32,2.12s-0.533,1.224-0.96,1.71c-0.427,0.487-0.95,0.867-1.57,1.14c-0.62,0.273-1.344,0.41-2.17,0.41
		c-0.813,0-1.534-0.137-2.16-0.41c-0.627-0.273-1.153-0.653-1.58-1.14c-0.427-0.486-0.747-1.057-0.96-1.71
		c-0.213-0.653-0.32-1.36-0.32-2.12C142.678,83.209,142.784,82.499,142.998,81.839z M144.728,85.639
		c0.167,0.487,0.396,0.894,0.69,1.22c0.293,0.327,0.637,0.577,1.03,0.75c0.393,0.173,0.81,0.26,1.25,0.26
		c0.44,0,0.856-0.087,1.25-0.26c0.393-0.173,0.736-0.423,1.03-0.75c0.293-0.327,0.523-0.733,0.69-1.22
		c0.167-0.486,0.25-1.043,0.25-1.67c0-0.626-0.083-1.183-0.25-1.67c-0.167-0.486-0.397-0.896-0.69-1.23
		c-0.293-0.333-0.637-0.586-1.03-0.76c-0.394-0.173-0.81-0.26-1.25-0.26c-0.44,0-0.857,0.087-1.25,0.26
		c-0.394,0.173-0.737,0.427-1.03,0.76c-0.293,0.333-0.523,0.744-0.69,1.23c-0.167,0.487-0.25,1.043-0.25,1.67
		C144.478,84.596,144.561,85.152,144.728,85.639z"/>
	<path fill="#FFFFFF" d="M164.697,78.789v1.5h-2.06v6.42c0,0.2,0.017,0.36,0.05,0.48s0.097,0.213,0.19,0.28
		c0.093,0.067,0.223,0.11,0.39,0.13c0.167,0.02,0.383,0.03,0.65,0.03h0.78v1.5h-1.3c-0.44,0-0.817-0.03-1.13-0.09
		c-0.313-0.06-0.567-0.17-0.76-0.33s-0.336-0.387-0.43-0.68c-0.094-0.293-0.14-0.68-0.14-1.16v-6.58h-1.76v-1.5h1.76v-3.1h1.7v3.1
		H164.697z"/>
	<path fill="#FFFFFF" d="M168.117,78.789v2.18h0.04c0.413-0.84,0.92-1.46,1.52-1.86s1.36-0.586,2.28-0.56v1.8
		c-0.68,0-1.26,0.093-1.74,0.28c-0.48,0.187-0.867,0.46-1.16,0.82c-0.293,0.36-0.507,0.797-0.64,1.31
		c-0.134,0.514-0.2,1.104-0.2,1.77v4.6h-1.7v-10.34H168.117z"/>
	<path fill="#FFFFFF" d="M181.177,89.349c-0.44,0-0.79-0.124-1.05-0.37c-0.26-0.247-0.39-0.65-0.39-1.21
		c-0.467,0.56-1.01,0.963-1.63,1.21s-1.29,0.37-2.01,0.37c-0.467,0-0.907-0.05-1.32-0.15c-0.413-0.1-0.777-0.267-1.09-0.5
		c-0.313-0.233-0.56-0.533-0.74-0.9c-0.18-0.367-0.27-0.81-0.27-1.33c0-0.586,0.1-1.066,0.3-1.44c0.2-0.373,0.463-0.676,0.79-0.91
		c0.327-0.233,0.7-0.41,1.12-0.53c0.42-0.12,0.85-0.22,1.29-0.3c0.466-0.093,0.91-0.163,1.33-0.21c0.42-0.047,0.79-0.113,1.11-0.2
		c0.32-0.086,0.573-0.213,0.76-0.38c0.187-0.167,0.28-0.41,0.28-0.73c0-0.373-0.07-0.673-0.21-0.9c-0.14-0.227-0.32-0.4-0.54-0.52
		c-0.22-0.12-0.467-0.2-0.74-0.24c-0.273-0.04-0.543-0.06-0.81-0.06c-0.72,0-1.32,0.137-1.8,0.41s-0.74,0.79-0.78,1.55h-1.7
		c0.026-0.64,0.16-1.18,0.4-1.62c0.24-0.44,0.56-0.796,0.96-1.07c0.4-0.273,0.86-0.47,1.38-0.59s1.067-0.18,1.64-0.18
		c0.467,0,0.93,0.034,1.39,0.1c0.46,0.067,0.876,0.204,1.25,0.41c0.373,0.207,0.673,0.497,0.9,0.87c0.227,0.374,0.34,0.86,0.34,1.46
		v5.32c0,0.4,0.023,0.693,0.07,0.88c0.046,0.187,0.203,0.28,0.47,0.28c0.146,0,0.32-0.033,0.52-0.1v1.32
		C182.103,89.262,181.697,89.349,181.177,89.349z M178.796,84.139c-0.347,0.074-0.71,0.134-1.09,0.18
		c-0.38,0.047-0.764,0.1-1.15,0.16c-0.387,0.06-0.733,0.157-1.04,0.29c-0.307,0.133-0.557,0.323-0.75,0.57
		c-0.193,0.247-0.29,0.583-0.29,1.01c0,0.28,0.057,0.517,0.17,0.71s0.26,0.35,0.44,0.47c0.18,0.12,0.393,0.207,0.64,0.26
		c0.247,0.053,0.497,0.08,0.75,0.08c0.56,0,1.04-0.077,1.44-0.23c0.4-0.153,0.727-0.346,0.98-0.58s0.44-0.487,0.56-0.76
		c0.12-0.273,0.18-0.53,0.18-0.77v-1.74C179.423,83.949,179.143,84.066,178.796,84.139z"/>
	<path fill="#FFFFFF" d="M188.397,78.789v1.5h-2.06v6.42c0,0.2,0.017,0.36,0.05,0.48s0.097,0.213,0.19,0.28
		c0.093,0.067,0.223,0.11,0.39,0.13c0.167,0.02,0.383,0.03,0.65,0.03h0.78v1.5h-1.3c-0.44,0-0.817-0.03-1.13-0.09
		c-0.313-0.06-0.567-0.17-0.76-0.33s-0.336-0.387-0.43-0.68c-0.094-0.293-0.14-0.68-0.14-1.16v-6.58h-1.76v-1.5h1.76v-3.1h1.7v3.1
		H188.397z"/>
	<path fill="#FFFFFF" d="M198.216,89.349c-0.44,0-0.79-0.124-1.05-0.37c-0.26-0.247-0.39-0.65-0.39-1.21
		c-0.467,0.56-1.01,0.963-1.63,1.21s-1.29,0.37-2.01,0.37c-0.467,0-0.907-0.05-1.32-0.15c-0.413-0.1-0.777-0.267-1.09-0.5
		c-0.313-0.233-0.56-0.533-0.74-0.9c-0.18-0.367-0.27-0.81-0.27-1.33c0-0.586,0.1-1.066,0.3-1.44c0.2-0.373,0.463-0.676,0.79-0.91
		c0.327-0.233,0.7-0.41,1.12-0.53c0.42-0.12,0.85-0.22,1.29-0.3c0.466-0.093,0.91-0.163,1.33-0.21c0.42-0.047,0.79-0.113,1.11-0.2
		c0.32-0.086,0.573-0.213,0.76-0.38c0.187-0.167,0.28-0.41,0.28-0.73c0-0.373-0.07-0.673-0.21-0.9c-0.14-0.227-0.32-0.4-0.54-0.52
		c-0.22-0.12-0.467-0.2-0.74-0.24c-0.273-0.04-0.543-0.06-0.81-0.06c-0.72,0-1.32,0.137-1.8,0.41s-0.74,0.79-0.78,1.55h-1.7
		c0.026-0.64,0.16-1.18,0.4-1.62c0.24-0.44,0.56-0.796,0.96-1.07c0.4-0.273,0.86-0.47,1.38-0.59s1.067-0.18,1.64-0.18
		c0.467,0,0.93,0.034,1.39,0.1c0.46,0.067,0.876,0.204,1.25,0.41c0.373,0.207,0.673,0.497,0.9,0.87c0.227,0.374,0.34,0.86,0.34,1.46
		v5.32c0,0.4,0.023,0.693,0.07,0.88c0.046,0.187,0.203,0.28,0.47,0.28c0.146,0,0.32-0.033,0.52-0.1v1.32
		C199.143,89.262,198.736,89.349,198.216,89.349z M195.836,84.139c-0.347,0.074-0.71,0.134-1.09,0.18
		c-0.38,0.047-0.764,0.1-1.15,0.16c-0.387,0.06-0.733,0.157-1.04,0.29c-0.307,0.133-0.557,0.323-0.75,0.57
		c-0.193,0.247-0.29,0.583-0.29,1.01c0,0.28,0.057,0.517,0.17,0.71s0.26,0.35,0.44,0.47c0.18,0.12,0.393,0.207,0.64,0.26
		c0.247,0.053,0.497,0.08,0.75,0.08c0.56,0,1.04-0.077,1.44-0.23c0.4-0.153,0.727-0.346,0.98-0.58s0.44-0.487,0.56-0.76
		c0.12-0.273,0.18-0.53,0.18-0.77v-1.74C196.463,83.949,196.183,84.066,195.836,84.139z"/>
	<path fill="#FFFFFF" d="M202.616,78.789v1.52h0.04c0.773-1.173,1.887-1.76,3.34-1.76c0.64,0,1.22,0.133,1.74,0.4
		c0.52,0.267,0.887,0.72,1.1,1.36c0.347-0.56,0.803-0.993,1.37-1.3c0.566-0.307,1.19-0.46,1.87-0.46c0.52,0,0.99,0.057,1.41,0.17
		c0.42,0.114,0.78,0.29,1.08,0.53c0.3,0.24,0.533,0.55,0.7,0.93c0.167,0.38,0.25,0.837,0.25,1.37v7.58h-1.7v-6.78
		c0-0.32-0.027-0.62-0.08-0.9c-0.053-0.28-0.153-0.523-0.3-0.73c-0.147-0.207-0.35-0.37-0.61-0.49c-0.26-0.12-0.597-0.18-1.01-0.18
		c-0.84,0-1.5,0.24-1.98,0.72s-0.72,1.12-0.72,1.92v6.44h-1.7v-6.78c0-0.333-0.03-0.64-0.09-0.92c-0.06-0.28-0.163-0.523-0.31-0.73
		c-0.146-0.207-0.343-0.366-0.59-0.48c-0.247-0.113-0.563-0.17-0.95-0.17c-0.494,0-0.917,0.1-1.27,0.3
		c-0.354,0.2-0.64,0.44-0.86,0.72c-0.22,0.28-0.38,0.57-0.48,0.87c-0.1,0.3-0.15,0.55-0.15,0.75v6.44h-1.7v-10.34H202.616z"/>
	<path fill="#FFFFFF" d="M225.396,88.469c-0.773,0.587-1.747,0.88-2.92,0.88c-0.827,0-1.543-0.134-2.15-0.4
		c-0.606-0.267-1.117-0.64-1.53-1.12c-0.414-0.48-0.724-1.053-0.93-1.72c-0.207-0.667-0.323-1.393-0.35-2.18
		c0-0.786,0.12-1.506,0.36-2.16c0.24-0.653,0.577-1.22,1.01-1.7s0.947-0.853,1.54-1.12c0.593-0.267,1.243-0.4,1.95-0.4
		c0.92,0,1.683,0.19,2.29,0.57c0.606,0.38,1.093,0.863,1.46,1.45c0.367,0.587,0.62,1.227,0.76,1.92
		c0.14,0.693,0.197,1.354,0.17,1.98h-7.74c-0.014,0.454,0.04,0.884,0.16,1.29c0.12,0.407,0.313,0.767,0.58,1.08
		c0.267,0.313,0.607,0.563,1.02,0.75c0.414,0.187,0.9,0.28,1.46,0.28c0.72,0,1.31-0.167,1.77-0.5c0.46-0.333,0.763-0.84,0.91-1.52
		h1.68C226.669,87.009,226.169,87.882,225.396,88.469z M224.986,81.829c-0.153-0.36-0.36-0.67-0.62-0.93
		c-0.26-0.26-0.567-0.467-0.92-0.62c-0.354-0.153-0.743-0.23-1.17-0.23c-0.44,0-0.837,0.077-1.19,0.23
		c-0.354,0.153-0.657,0.364-0.91,0.63c-0.253,0.267-0.453,0.577-0.6,0.93c-0.146,0.354-0.233,0.73-0.26,1.13h5.94
		C225.229,82.569,225.139,82.189,224.986,81.829z"/>
	<path fill="#FFFFFF" d="M230.416,78.789v1.64h0.04c0.707-1.253,1.827-1.88,3.36-1.88c0.68,0,1.247,0.094,1.7,0.28
		c0.453,0.187,0.82,0.447,1.1,0.78c0.28,0.333,0.477,0.73,0.59,1.19s0.17,0.97,0.17,1.53v6.8h-1.7v-7c0-0.64-0.187-1.146-0.56-1.52
		c-0.374-0.373-0.887-0.56-1.54-0.56c-0.52,0-0.97,0.08-1.35,0.24c-0.38,0.16-0.697,0.387-0.95,0.68
		c-0.254,0.293-0.444,0.637-0.57,1.03c-0.127,0.394-0.19,0.823-0.19,1.29v5.84h-1.7v-10.34H230.416z"/>
	<path fill="#FFFFFF" d="M244.356,78.789v1.5h-2.06v6.42c0,0.2,0.017,0.36,0.05,0.48s0.097,0.213,0.19,0.28
		c0.093,0.067,0.223,0.11,0.39,0.13c0.167,0.02,0.383,0.03,0.65,0.03h0.78v1.5h-1.3c-0.44,0-0.817-0.03-1.13-0.09
		c-0.313-0.06-0.567-0.17-0.76-0.33s-0.336-0.387-0.43-0.68c-0.094-0.293-0.14-0.68-0.14-1.16v-6.58h-1.76v-1.5h1.76v-3.1h1.7v3.1
		H244.356z"/>
	<path fill="#FFFFFF" d="M245.996,81.839c0.213-0.66,0.533-1.233,0.96-1.72s0.953-0.87,1.58-1.15c0.626-0.28,1.347-0.42,2.16-0.42
		c0.826,0,1.55,0.14,2.17,0.42c0.62,0.28,1.143,0.664,1.57,1.15s0.747,1.06,0.96,1.72s0.32,1.37,0.32,2.13
		c0,0.76-0.106,1.467-0.32,2.12s-0.533,1.224-0.96,1.71c-0.427,0.487-0.95,0.867-1.57,1.14c-0.62,0.273-1.344,0.41-2.17,0.41
		c-0.813,0-1.534-0.137-2.16-0.41c-0.627-0.273-1.153-0.653-1.58-1.14c-0.427-0.486-0.747-1.057-0.96-1.71
		c-0.213-0.653-0.32-1.36-0.32-2.12C245.676,83.209,245.782,82.499,245.996,81.839z M247.726,85.639
		c0.167,0.487,0.396,0.894,0.69,1.22c0.293,0.327,0.637,0.577,1.03,0.75c0.393,0.173,0.81,0.26,1.25,0.26
		c0.44,0,0.856-0.087,1.25-0.26c0.393-0.173,0.736-0.423,1.03-0.75c0.293-0.327,0.523-0.733,0.69-1.22
		c0.167-0.486,0.25-1.043,0.25-1.67c0-0.626-0.083-1.183-0.25-1.67c-0.167-0.486-0.397-0.896-0.69-1.23
		c-0.293-0.333-0.637-0.586-1.03-0.76c-0.394-0.173-0.81-0.26-1.25-0.26c-0.44,0-0.857,0.087-1.25,0.26
		c-0.394,0.173-0.737,0.427-1.03,0.76c-0.293,0.333-0.523,0.744-0.69,1.23c-0.167,0.487-0.25,1.043-0.25,1.67
		C247.476,84.596,247.559,85.152,247.726,85.639z"/>
	<path fill="#FFFFFF" d="M270.815,89.129v-1.4h-0.04c-0.28,0.573-0.72,0.987-1.32,1.24c-0.6,0.253-1.26,0.38-1.98,0.38
		c-0.8,0-1.497-0.147-2.09-0.44c-0.594-0.293-1.087-0.687-1.48-1.18c-0.394-0.493-0.69-1.067-0.89-1.72
		c-0.2-0.653-0.3-1.347-0.3-2.08c0-0.733,0.096-1.426,0.29-2.08s0.487-1.223,0.88-1.71c0.393-0.486,0.886-0.873,1.48-1.16
		c0.593-0.287,1.283-0.43,2.07-0.43c0.267,0,0.553,0.027,0.86,0.08s0.613,0.144,0.92,0.27c0.306,0.127,0.596,0.293,0.87,0.5
		c0.273,0.207,0.503,0.463,0.69,0.77h0.04v-5.32h1.7v14.28H270.815z M264.705,85.459c0.126,0.46,0.32,0.87,0.58,1.23
		c0.26,0.36,0.593,0.647,1,0.86c0.407,0.213,0.883,0.32,1.43,0.32c0.573,0,1.06-0.113,1.46-0.34c0.4-0.227,0.727-0.523,0.98-0.89
		c0.253-0.366,0.437-0.783,0.55-1.25c0.113-0.466,0.17-0.94,0.17-1.42c0-0.506-0.06-0.997-0.18-1.47
		c-0.12-0.473-0.31-0.89-0.57-1.25c-0.26-0.36-0.597-0.65-1.01-0.87c-0.414-0.22-0.914-0.33-1.5-0.33c-0.574,0-1.06,0.113-1.46,0.34
		c-0.4,0.227-0.72,0.527-0.96,0.9c-0.24,0.373-0.414,0.8-0.52,1.28c-0.107,0.48-0.16,0.974-0.16,1.48
		C264.515,84.529,264.578,84.999,264.705,85.459z"/>
	<path fill="#FFFFFF" d="M283.075,89.349c-0.44,0-0.79-0.124-1.05-0.37c-0.26-0.247-0.39-0.65-0.39-1.21
		c-0.467,0.56-1.01,0.963-1.63,1.21s-1.29,0.37-2.01,0.37c-0.467,0-0.907-0.05-1.32-0.15c-0.413-0.1-0.777-0.267-1.09-0.5
		c-0.313-0.233-0.56-0.533-0.74-0.9c-0.18-0.367-0.27-0.81-0.27-1.33c0-0.586,0.1-1.066,0.3-1.44c0.2-0.373,0.463-0.676,0.79-0.91
		c0.327-0.233,0.7-0.41,1.12-0.53c0.42-0.12,0.85-0.22,1.29-0.3c0.466-0.093,0.91-0.163,1.33-0.21c0.42-0.047,0.79-0.113,1.11-0.2
		c0.32-0.086,0.573-0.213,0.76-0.38c0.187-0.167,0.28-0.41,0.28-0.73c0-0.373-0.07-0.673-0.21-0.9c-0.14-0.227-0.32-0.4-0.54-0.52
		c-0.22-0.12-0.467-0.2-0.74-0.24c-0.273-0.04-0.543-0.06-0.81-0.06c-0.72,0-1.32,0.137-1.8,0.41s-0.74,0.79-0.78,1.55h-1.7
		c0.026-0.64,0.16-1.18,0.4-1.62c0.24-0.44,0.56-0.796,0.96-1.07c0.4-0.273,0.86-0.47,1.38-0.59s1.067-0.18,1.64-0.18
		c0.467,0,0.93,0.034,1.39,0.1c0.46,0.067,0.876,0.204,1.25,0.41c0.373,0.207,0.673,0.497,0.9,0.87c0.227,0.374,0.34,0.86,0.34,1.46
		v5.32c0,0.4,0.023,0.693,0.07,0.88c0.046,0.187,0.203,0.28,0.47,0.28c0.146,0,0.32-0.033,0.52-0.1v1.32
		C284.001,89.262,283.595,89.349,283.075,89.349z M280.695,84.139c-0.347,0.074-0.71,0.134-1.09,0.18
		c-0.38,0.047-0.764,0.1-1.15,0.16c-0.387,0.06-0.733,0.157-1.04,0.29c-0.307,0.133-0.557,0.323-0.75,0.57
		c-0.193,0.247-0.29,0.583-0.29,1.01c0,0.28,0.057,0.517,0.17,0.71s0.26,0.35,0.44,0.47c0.18,0.12,0.393,0.207,0.64,0.26
		c0.247,0.053,0.497,0.08,0.75,0.08c0.56,0,1.04-0.077,1.44-0.23c0.4-0.153,0.727-0.346,0.98-0.58s0.44-0.487,0.56-0.76
		c0.12-0.273,0.18-0.53,0.18-0.77v-1.74C281.322,83.949,281.042,84.066,280.695,84.139z"/>
	<path fill="#FFFFFF" d="M296.615,74.849c2.2,0,3.893,0.56,5.081,1.68c1.186,1.12,1.779,2.827,1.779,5.12
		c0,1.2-0.133,2.263-0.4,3.19c-0.266,0.927-0.68,1.707-1.24,2.34c-0.559,0.634-1.273,1.117-2.139,1.45
		c-0.868,0.333-1.894,0.5-3.081,0.5h-4.9v-14.28H296.615z M296.775,87.529c0.213,0,0.479-0.017,0.8-0.05s0.66-0.113,1.021-0.24
		c0.359-0.126,0.715-0.31,1.069-0.55c0.354-0.24,0.67-0.566,0.951-0.98c0.279-0.413,0.51-0.93,0.689-1.55
		c0.18-0.62,0.27-1.37,0.27-2.25c0-0.853-0.082-1.616-0.25-2.29c-0.166-0.673-0.439-1.247-0.82-1.72
		c-0.379-0.473-0.869-0.833-1.469-1.08c-0.6-0.247-1.34-0.37-2.22-0.37h-3.2v11.08H296.775z"/>
	<path fill="#FFFFFF" d="M312.834,88.469c-0.773,0.587-1.746,0.88-2.92,0.88c-0.826,0-1.543-0.134-2.148-0.4
		c-0.607-0.267-1.117-0.64-1.531-1.12c-0.412-0.48-0.723-1.053-0.93-1.72c-0.207-0.667-0.324-1.393-0.35-2.18
		c0-0.786,0.119-1.506,0.359-2.16s0.576-1.22,1.01-1.7s0.947-0.853,1.541-1.12c0.592-0.267,1.242-0.4,1.949-0.4
		c0.92,0,1.684,0.19,2.291,0.57c0.605,0.38,1.092,0.863,1.459,1.45c0.367,0.587,0.621,1.227,0.76,1.92
		c0.141,0.693,0.197,1.354,0.17,1.98h-7.74c-0.012,0.454,0.041,0.884,0.16,1.29c0.121,0.407,0.314,0.767,0.58,1.08
		c0.268,0.313,0.607,0.563,1.021,0.75c0.412,0.187,0.898,0.28,1.459,0.28c0.721,0,1.311-0.167,1.77-0.5
		c0.461-0.333,0.764-0.84,0.91-1.52h1.68C314.107,87.009,313.607,87.882,312.834,88.469z M312.426,81.829
		c-0.154-0.36-0.361-0.67-0.621-0.93c-0.26-0.26-0.566-0.467-0.92-0.62c-0.354-0.153-0.744-0.23-1.17-0.23
		c-0.439,0-0.836,0.077-1.189,0.23c-0.354,0.153-0.658,0.364-0.91,0.63c-0.254,0.267-0.453,0.577-0.6,0.93
		c-0.148,0.354-0.234,0.73-0.262,1.13h5.941C312.668,82.569,312.578,82.189,312.426,81.829z"/>
	<path fill="#FFFFFF" d="M318.014,78.789v1.4h0.041c0.279-0.573,0.719-0.99,1.32-1.25c0.6-0.26,1.26-0.39,1.979-0.39
		c0.801,0,1.498,0.147,2.09,0.44c0.594,0.293,1.088,0.69,1.48,1.19s0.689,1.077,0.891,1.73c0.199,0.654,0.299,1.347,0.299,2.08
		c0,0.733-0.096,1.427-0.289,2.08c-0.193,0.653-0.486,1.224-0.881,1.71c-0.393,0.487-0.887,0.87-1.479,1.15
		c-0.594,0.28-1.283,0.42-2.07,0.42c-0.254,0-0.537-0.027-0.85-0.08c-0.314-0.054-0.625-0.14-0.932-0.26s-0.596-0.283-0.869-0.49
		s-0.504-0.463-0.689-0.77h-0.041v5.32h-1.699v-14.28H318.014z M324.125,82.459c-0.127-0.46-0.32-0.87-0.58-1.23
		c-0.262-0.36-0.594-0.646-1-0.86c-0.408-0.213-0.885-0.32-1.432-0.32c-0.572,0-1.059,0.113-1.459,0.34
		c-0.4,0.227-0.727,0.523-0.98,0.89c-0.254,0.367-0.438,0.784-0.549,1.25c-0.115,0.467-0.17,0.94-0.17,1.42
		c0,0.507,0.059,0.997,0.18,1.47c0.119,0.474,0.309,0.89,0.57,1.25c0.26,0.36,0.596,0.65,1.01,0.87c0.412,0.22,0.912,0.33,1.5,0.33
		c0.586,0,1.076-0.113,1.469-0.34c0.395-0.227,0.711-0.526,0.951-0.9c0.24-0.373,0.412-0.8,0.52-1.28
		c0.105-0.48,0.16-0.973,0.16-1.48C324.314,83.389,324.25,82.919,324.125,82.459z"/>
	<path fill="#FFFFFF" d="M329.654,78.789v2.18h0.041c0.412-0.84,0.92-1.46,1.52-1.86s1.359-0.586,2.279-0.56v1.8
		c-0.68,0-1.26,0.093-1.74,0.28c-0.479,0.187-0.867,0.46-1.16,0.82c-0.293,0.36-0.506,0.797-0.639,1.31
		c-0.135,0.514-0.201,1.104-0.201,1.77v4.6h-1.699v-10.34H329.654z"/>
	<path fill="#FFFFFF" d="M341.734,88.469c-0.773,0.587-1.746,0.88-2.92,0.88c-0.826,0-1.543-0.134-2.15-0.4s-1.117-0.64-1.529-1.12
		c-0.414-0.48-0.725-1.053-0.93-1.72c-0.207-0.667-0.324-1.393-0.352-2.18c0-0.786,0.121-1.506,0.361-2.16s0.576-1.22,1.01-1.7
		s0.945-0.853,1.539-1.12c0.594-0.267,1.244-0.4,1.951-0.4c0.92,0,1.682,0.19,2.289,0.57c0.607,0.38,1.094,0.863,1.461,1.45
		c0.365,0.587,0.619,1.227,0.76,1.92c0.141,0.693,0.195,1.354,0.17,1.98h-7.74c-0.014,0.454,0.039,0.884,0.16,1.29
		c0.119,0.407,0.312,0.767,0.58,1.08c0.266,0.313,0.605,0.563,1.02,0.75c0.414,0.187,0.9,0.28,1.461,0.28
		c0.719,0,1.309-0.167,1.77-0.5c0.459-0.333,0.764-0.84,0.91-1.52h1.68C343.008,87.009,342.508,87.882,341.734,88.469z
		 M341.324,81.829c-0.154-0.36-0.359-0.67-0.619-0.93c-0.262-0.26-0.568-0.467-0.92-0.62c-0.354-0.153-0.744-0.23-1.17-0.23
		c-0.441,0-0.838,0.077-1.191,0.23c-0.354,0.153-0.656,0.364-0.91,0.63c-0.252,0.267-0.453,0.577-0.6,0.93
		c-0.146,0.354-0.232,0.73-0.26,1.13h5.939C341.568,82.569,341.477,82.189,341.324,81.829z"/>
	<path fill="#FFFFFF" d="M346.453,86.819c0.16,0.26,0.371,0.467,0.631,0.62s0.553,0.263,0.879,0.33c0.328,0.067,0.664,0.1,1.01,0.1
		c0.268,0,0.547-0.02,0.842-0.06c0.293-0.04,0.562-0.113,0.809-0.22c0.246-0.106,0.451-0.263,0.611-0.47
		c0.158-0.207,0.238-0.47,0.238-0.79c0-0.44-0.166-0.773-0.5-1c-0.332-0.227-0.75-0.41-1.25-0.55s-1.043-0.267-1.629-0.38
		c-0.588-0.113-1.131-0.273-1.631-0.48c-0.5-0.207-0.916-0.497-1.25-0.87c-0.332-0.373-0.5-0.893-0.5-1.56
		c0-0.52,0.117-0.966,0.352-1.34c0.232-0.373,0.531-0.677,0.898-0.91c0.367-0.233,0.781-0.406,1.24-0.52
		c0.461-0.113,0.916-0.17,1.371-0.17c0.586,0,1.125,0.05,1.619,0.15c0.494,0.1,0.93,0.273,1.311,0.52c0.379,0.247,0.684,0.58,0.91,1
		s0.359,0.943,0.4,1.57h-1.701c-0.027-0.333-0.113-0.61-0.26-0.83c-0.146-0.22-0.334-0.396-0.561-0.53
		c-0.227-0.133-0.477-0.23-0.75-0.29c-0.273-0.06-0.549-0.09-0.83-0.09c-0.252,0-0.51,0.02-0.77,0.06s-0.496,0.11-0.709,0.21
		c-0.215,0.1-0.389,0.233-0.521,0.4c-0.133,0.167-0.199,0.384-0.199,0.65c0,0.293,0.104,0.537,0.311,0.73
		c0.205,0.193,0.469,0.353,0.789,0.48c0.32,0.126,0.68,0.233,1.08,0.32c0.4,0.087,0.801,0.177,1.199,0.27
		c0.428,0.093,0.844,0.207,1.25,0.34c0.408,0.134,0.768,0.31,1.08,0.53c0.314,0.22,0.568,0.497,0.762,0.83
		c0.191,0.333,0.289,0.747,0.289,1.24c0,0.627-0.131,1.147-0.391,1.56c-0.26,0.414-0.6,0.747-1.02,1
		c-0.42,0.253-0.893,0.43-1.42,0.53c-0.527,0.1-1.051,0.15-1.57,0.15c-0.572,0-1.119-0.06-1.639-0.18
		c-0.521-0.12-0.98-0.316-1.381-0.59s-0.721-0.633-0.961-1.08c-0.238-0.447-0.373-0.99-0.398-1.63h1.699
		C346.207,86.242,346.293,86.559,346.453,86.819z"/>
	<path fill="#FFFFFF" d="M356.453,86.819c0.16,0.26,0.371,0.467,0.631,0.62s0.553,0.263,0.879,0.33c0.328,0.067,0.664,0.1,1.01,0.1
		c0.268,0,0.547-0.02,0.842-0.06c0.293-0.04,0.562-0.113,0.809-0.22c0.246-0.106,0.451-0.263,0.611-0.47
		c0.158-0.207,0.238-0.47,0.238-0.79c0-0.44-0.166-0.773-0.5-1c-0.332-0.227-0.75-0.41-1.25-0.55s-1.043-0.267-1.629-0.38
		c-0.588-0.113-1.131-0.273-1.631-0.48c-0.5-0.207-0.916-0.497-1.25-0.87c-0.332-0.373-0.5-0.893-0.5-1.56
		c0-0.52,0.117-0.966,0.352-1.34c0.232-0.373,0.531-0.677,0.898-0.91c0.367-0.233,0.781-0.406,1.24-0.52
		c0.461-0.113,0.916-0.17,1.371-0.17c0.586,0,1.125,0.05,1.619,0.15c0.494,0.1,0.93,0.273,1.311,0.52c0.379,0.247,0.684,0.58,0.91,1
		s0.359,0.943,0.4,1.57h-1.701c-0.027-0.333-0.113-0.61-0.26-0.83c-0.146-0.22-0.334-0.396-0.561-0.53
		c-0.227-0.133-0.477-0.23-0.75-0.29c-0.273-0.06-0.549-0.09-0.83-0.09c-0.252,0-0.51,0.02-0.77,0.06s-0.496,0.11-0.709,0.21
		c-0.215,0.1-0.389,0.233-0.521,0.4c-0.133,0.167-0.199,0.384-0.199,0.65c0,0.293,0.104,0.537,0.311,0.73
		c0.205,0.193,0.469,0.353,0.789,0.48c0.32,0.126,0.68,0.233,1.08,0.32c0.4,0.087,0.801,0.177,1.199,0.27
		c0.428,0.093,0.844,0.207,1.25,0.34c0.408,0.134,0.768,0.31,1.08,0.53c0.314,0.22,0.568,0.497,0.762,0.83
		c0.191,0.333,0.289,0.747,0.289,1.24c0,0.627-0.131,1.147-0.391,1.56c-0.26,0.414-0.6,0.747-1.02,1
		c-0.42,0.253-0.893,0.43-1.42,0.53c-0.527,0.1-1.051,0.15-1.57,0.15c-0.572,0-1.119-0.06-1.639-0.18
		c-0.521-0.12-0.98-0.316-1.381-0.59s-0.721-0.633-0.961-1.08c-0.238-0.447-0.373-0.99-0.398-1.63h1.699
		C356.207,86.242,356.293,86.559,356.453,86.819z"/>
	<path fill="#FFFFFF" d="M373.094,89.349c-0.439,0-0.791-0.124-1.051-0.37s-0.389-0.65-0.389-1.21
		c-0.467,0.56-1.012,0.963-1.631,1.21s-1.289,0.37-2.01,0.37c-0.467,0-0.906-0.05-1.32-0.15c-0.414-0.1-0.777-0.267-1.09-0.5
		c-0.312-0.233-0.561-0.533-0.74-0.9c-0.18-0.367-0.27-0.81-0.27-1.33c0-0.586,0.1-1.066,0.299-1.44
		c0.201-0.373,0.465-0.676,0.791-0.91s0.699-0.41,1.119-0.53s0.852-0.22,1.291-0.3c0.467-0.093,0.91-0.163,1.33-0.21
		s0.789-0.113,1.109-0.2c0.32-0.086,0.574-0.213,0.76-0.38c0.188-0.167,0.281-0.41,0.281-0.73c0-0.373-0.07-0.673-0.211-0.9
		s-0.32-0.4-0.539-0.52c-0.221-0.12-0.467-0.2-0.74-0.24s-0.543-0.06-0.811-0.06c-0.721,0-1.32,0.137-1.801,0.41
		c-0.479,0.273-0.738,0.79-0.779,1.55h-1.699c0.025-0.64,0.16-1.18,0.398-1.62c0.24-0.44,0.561-0.796,0.961-1.07
		c0.4-0.273,0.859-0.47,1.381-0.59c0.52-0.12,1.066-0.18,1.639-0.18c0.467,0,0.93,0.034,1.391,0.1
		c0.459,0.067,0.877,0.204,1.25,0.41s0.674,0.497,0.9,0.87c0.227,0.374,0.34,0.86,0.34,1.46v5.32c0,0.4,0.023,0.693,0.07,0.88
		c0.045,0.187,0.203,0.28,0.469,0.28c0.146,0,0.32-0.033,0.521-0.1v1.32C374.02,89.262,373.613,89.349,373.094,89.349z
		 M372.113,76.509c-0.174,0.187-0.383,0.337-0.629,0.45c-0.248,0.113-0.564,0.17-0.951,0.17c-0.174,0-0.377-0.04-0.609-0.12
		c-0.234-0.08-0.471-0.173-0.711-0.28c-0.24-0.093-0.477-0.18-0.709-0.26c-0.234-0.08-0.443-0.12-0.631-0.12
		c-0.213,0-0.434,0.077-0.66,0.23s-0.326,0.356-0.299,0.61h-1.041c0.08-0.293,0.178-0.573,0.291-0.84s0.25-0.5,0.41-0.7
		s0.352-0.36,0.58-0.48c0.227-0.12,0.5-0.18,0.818-0.18c0.268,0,0.523,0.04,0.771,0.12c0.246,0.08,0.482,0.17,0.709,0.27
		s0.451,0.193,0.67,0.28c0.221,0.087,0.438,0.13,0.65,0.13c0.268,0,0.471-0.097,0.609-0.29c0.141-0.193,0.244-0.39,0.311-0.59h1.041
		C372.654,75.509,372.447,76.042,372.113,76.509z M370.713,84.139c-0.346,0.074-0.709,0.134-1.09,0.18
		c-0.379,0.047-0.764,0.1-1.15,0.16s-0.732,0.157-1.039,0.29s-0.557,0.323-0.75,0.57c-0.193,0.247-0.291,0.583-0.291,1.01
		c0,0.28,0.057,0.517,0.172,0.71c0.111,0.193,0.26,0.35,0.439,0.47s0.393,0.207,0.639,0.26c0.248,0.053,0.498,0.08,0.75,0.08
		c0.561,0,1.041-0.077,1.441-0.23c0.4-0.153,0.727-0.346,0.98-0.58c0.252-0.233,0.439-0.487,0.559-0.76
		c0.121-0.273,0.18-0.53,0.18-0.77v-1.74C371.34,83.949,371.061,84.066,370.713,84.139z"/>
	<path fill="#FFFFFF" d="M375.654,81.839c0.213-0.66,0.533-1.233,0.959-1.72c0.428-0.487,0.953-0.87,1.58-1.15
		c0.627-0.28,1.348-0.42,2.16-0.42c0.826,0,1.551,0.14,2.17,0.42c0.621,0.28,1.143,0.664,1.57,1.15
		c0.426,0.487,0.746,1.06,0.961,1.72c0.213,0.66,0.318,1.37,0.318,2.13c0,0.76-0.105,1.467-0.318,2.12
		c-0.215,0.653-0.535,1.224-0.961,1.71c-0.428,0.487-0.949,0.867-1.57,1.14c-0.619,0.273-1.344,0.41-2.17,0.41
		c-0.812,0-1.533-0.137-2.16-0.41s-1.152-0.653-1.58-1.14c-0.426-0.486-0.746-1.057-0.959-1.71c-0.215-0.653-0.32-1.36-0.32-2.12
		C375.334,83.209,375.439,82.499,375.654,81.839z M377.383,85.639c0.168,0.487,0.398,0.894,0.691,1.22s0.637,0.577,1.029,0.75
		s0.811,0.26,1.25,0.26s0.857-0.087,1.25-0.26s0.736-0.423,1.029-0.75c0.295-0.327,0.523-0.733,0.691-1.22
		c0.166-0.486,0.25-1.043,0.25-1.67c0-0.626-0.084-1.183-0.25-1.67c-0.168-0.486-0.396-0.896-0.691-1.23
		c-0.293-0.333-0.637-0.586-1.029-0.76s-0.811-0.26-1.25-0.26s-0.857,0.087-1.25,0.26s-0.736,0.427-1.029,0.76
		c-0.293,0.333-0.523,0.744-0.691,1.23c-0.166,0.487-0.25,1.043-0.25,1.67C377.133,84.596,377.217,85.152,377.383,85.639z"/>
</g>
</svg>
