<?xml version="1.0" encoding="utf-8"?>
<!-- Generator: Adobe Illustrator 15.0.0, SVG Export Plug-In . SVG Version: 6.00 Build 0)  -->
<!DOCTYPE svg PUBLIC "-//W3C//DTD SVG 1.1//EN" "http://www.w3.org/Graphics/SVG/1.1/DTD/svg11.dtd">
<svg version="1.1" id="Layer_1" xmlns="http://www.w3.org/2000/svg" xmlns:xlink="http://www.w3.org/1999/xlink" x="0px" y="0px"
	 width="578.603px" height="578.598px" viewBox="0 0 578.603 578.598" enable-background="new 0 0 578.603 578.598"
	 xml:space="preserve">
<g>
	<circle fill="#34AE61" cx="385.349" cy="78.907" r="42.149"/>
	<path fill="#38699D" d="M114.866,135.132l175.132,143.254V51.96c-0.164-0.001-0.326-0.003-0.49-0.003
		C219.02,51.958,156.107,84.385,114.866,135.132z"/>
	<circle fill="#38699D" cx="196.084" cy="85.444" r="42.149"/>
	<path fill="#FFFFFF" d="M192.058,56.148h-5.461v5.181h-13.278l-2.598,4.498l2.598,4.499h13.278v25.52h-11.281v2.96h28.337v-2.96
		h-11.595V56.148z M209.937,61.329h-15.585v8.997h15.585l2.596-4.499L209.937,61.329z M194.352,73.571v8.998h10.744l2.598-4.499
		l-2.598-4.499H194.352z"/>
	<path fill="#2A928E" d="M64.583,276.882c0,18.191,2.162,35.879,6.238,52.817l219.178-51.313L114.866,135.132
		C83.427,173.817,64.583,223.148,64.583,276.882z"/>
	<path fill="#006C68" d="M194.876,480.989l95.123-202.604L70.821,329.699C87.007,396.959,133.415,452.444,194.876,480.989z"/>
	<path fill="#2A928E" d="M289.508,501.807c34.12,0,66.463-7.598,95.437-21.193l-94.946-202.228l-95.123,202.604
		C223.642,494.349,255.703,501.807,289.508,501.807z"/>
	<path fill="#34AE61" d="M508.246,329.48l-218.247-51.095l94.946,202.228C446.072,451.93,492.176,396.545,508.246,329.48z"/>
	<path fill="#088141" d="M289.999,278.386l218.247,51.095c4.043-16.874,6.187-34.485,6.187-52.599
		c0-53.509-18.688-102.654-49.89-141.268L289.999,278.386z"/>
	<path fill="#34AE61" d="M289.999,51.96v226.425l174.544-142.771C423.406,84.708,360.514,52.112,289.999,51.96z"/>
	<path fill="#38699D" d="M144.596,159.263l145.319,118.867V90.25c-0.137-0.001-0.271-0.002-0.407-0.002
		C231.02,90.248,178.816,117.154,144.596,159.263z"/>
	<path fill="#2A928E" d="M102.873,276.882c0,15.095,1.794,29.771,5.177,43.826l181.866-42.579L144.596,159.263
		C118.509,191.363,102.873,232.295,102.873,276.882z"/>
	<path fill="#006C68" d="M210.985,446.243l78.93-168.114l-181.866,42.579C121.48,376.518,159.987,422.557,210.985,446.243z"/>
	<path fill="#2A928E" d="M289.508,463.517c28.312,0,55.148-6.305,79.189-17.585l-78.782-167.802l-78.93,168.114
		C234.854,457.328,261.458,463.517,289.508,463.517z"/>
	<path fill="#34AE61" d="M471.008,320.526l-181.093-42.397l78.782,167.802C419.419,422.13,457.675,376.174,471.008,320.526z"/>
	<path fill="#088141" d="M289.916,278.129l181.093,42.397c3.354-14.001,5.134-28.614,5.134-43.645
		c0-44.4-15.507-85.179-41.397-117.219L289.916,278.129z"/>
	<path fill="#34AE61" d="M289.916,90.25v187.879l144.829-118.466C400.612,117.423,348.426,90.375,289.916,90.25z"/>
	<path fill="#658BB5" d="M192.217,197.915l97.564,79.805V151.581c-0.091,0-0.183-0.001-0.272-0.001
		C250.24,151.579,215.191,169.644,192.217,197.915z"/>
	<path fill="#58ACA9" d="M164.204,276.882c0,10.134,1.205,19.987,3.476,29.424l122.102-28.586l-97.564-79.805
		C174.702,219.466,164.204,246.948,164.204,276.882z"/>
	<path fill="#078984" d="M236.789,390.588l52.992-112.868l-122.102,28.586C176.696,343.776,202.549,374.687,236.789,390.588z"/>
	<path fill="#58ACA9" d="M289.508,402.186c19.008,0,37.026-4.232,53.166-11.807L289.781,277.72l-52.992,112.868
		C252.814,398.029,270.675,402.186,289.508,402.186z"/>
	<path fill="#69C188" d="M411.365,306.184L289.781,277.72l52.894,112.659C376.728,374.399,402.413,343.546,411.365,306.184z"/>
	<path fill="#0CA54A" d="M289.781,277.72l121.584,28.464c2.252-9.399,3.446-19.21,3.446-29.302c0-29.81-10.41-57.187-27.793-78.699
		L289.781,277.72z"/>
	<path fill="#69C188" d="M289.781,151.581V277.72l97.237-79.537C364.102,169.824,329.063,151.665,289.781,151.581z"/>
	
		<text transform="matrix(0.7766 0.63 -0.63 0.7766 338.0903 322.2812)" fill="#FFFFFF" font-family="'HelveticaNeue-Light'" font-size="11.2069">grau leve</text>
	<g>
		<text transform="matrix(0.7326 -0.6806 0.6806 0.7326 203.3594 342.7725)"><tspan x="0" y="0" fill="#FFFFFF" font-family="'HelveticaNeue-Light'" font-size="11.2069">fase de </tspan><tspan x="-10.898" y="13.448" fill="#FFFFFF" font-family="'HelveticaNeue-Light'" font-size="11.2069">manutenção</tspan></text>
	</g>
	<g>
		<text transform="matrix(-0.024 -0.9997 0.9997 -0.024 281.8379 383.832)"><tspan x="0" y="0" fill="#FFFFFF" font-family="'HelveticaNeue-Light'" font-size="11.2069">fase de </tspan><tspan x="-8.511" y="13.448" fill="#FFFFFF" font-family="'HelveticaNeue-Light'" font-size="11.2069">tomada de </tspan><tspan x="0.414" y="26.896" fill="#FFFFFF" font-family="'HelveticaNeue-Light'" font-size="11.2069">decisão</tspan></text>
	</g>
	<text transform="matrix(0.9586 -0.2846 0.2846 0.9586 351.4692 249.564)"><tspan x="0" y="0" fill="#FFFFFF" font-family="'HelveticaNeue-Light'" font-size="11.2069">grau sem </tspan><tspan x="-6.645" y="13.448" fill="#FFFFFF" font-family="'HelveticaNeue-Light'" font-size="11.2069">modificação </tspan><tspan x="10.691" y="26.897" fill="#FFFFFF" font-family="'HelveticaNeue-Light'" font-size="11.2069">após </tspan><tspan x="4.68" y="40.345" fill="#FFFFFF" font-family="'HelveticaNeue-Light'" font-size="11.2069">um mês</tspan></text>
	<g>
		<text transform="matrix(0.9586 -0.2846 0.2846 0.9586 428.313 231.0576)"><tspan x="0" y="0" fill="#FFFFFF" font-family="'HelveticaNeue-Light'" font-size="11.2069">troca </tspan><tspan x="6.231" y="13.448" fill="#FFFFFF" font-family="'HelveticaNeue-Light'" font-size="11.2069">de </tspan><tspan x="-2.487" y="26.897" fill="#FFFFFF" font-family="'HelveticaNeue-Light'" font-size="11.2069">terapia</tspan></text>
	</g>
	<text transform="matrix(0.387 -0.9221 0.9221 0.387 312.3423 203.6875)"><tspan x="0" y="0" fill="#FFFFFF" font-family="'HelveticaNeue-Light'" font-size="11.2069">grau </tspan><tspan x="-6.332" y="13.448" fill="#FFFFFF" font-family="'HelveticaNeue-Light'" font-size="11.2069">leve ou </tspan><tspan x="-12.557" y="26.897" fill="#FFFFFF" font-family="'HelveticaNeue-Light'" font-size="11.2069">moderado</tspan></text>
	<g>
		<text transform="matrix(0.387 -0.9221 0.9221 0.387 337.4888 155.0361)"><tspan x="0" y="0" fill="#FFFFFF" font-family="'HelveticaNeue-Light'" font-size="11.2069">psicoterapia </tspan><tspan x="14.014" y="13.449" fill="#FFFFFF" font-family="'HelveticaNeue-Light'" font-size="11.2069">isolada</tspan></text>
	</g>
	<g>
		<text transform="matrix(0.4455 0.8953 -0.8953 0.4455 209.7261 107.3628)"><tspan x="0" y="0" fill="#FFFFFF" font-family="'HelveticaNeue-Light'" font-size="11.2069">tratamento </tspan><tspan x="1.552" y="13.448" fill="#FFFFFF" font-family="'HelveticaNeue-Light'" font-size="11.2069">de escolha</tspan></text>
	</g>
	<text transform="matrix(0.9694 0.2454 -0.2454 0.9694 187.8413 243.3354)"><tspan x="0" y="0" fill="#FFFFFF" font-family="'HelveticaNeue-Light'" font-size="11.2069">fase de </tspan><tspan x="-14.735" y="13.448" fill="#FFFFFF" font-family="'HelveticaNeue-Light'" font-size="11.2069">planejamento </tspan><tspan x="3.01" y="26.896" fill="#FFFFFF" font-family="'HelveticaNeue-Light'" font-size="11.2069">de alta</tspan></text>
	<g>
		<text transform="matrix(0.4455 0.8953 -0.8953 0.4455 252.4956 165.8418)"><tspan x="0" y="0" fill="#FFFFFF" font-family="'HelveticaNeue-Light'" font-size="11.2069">ocorrendo </tspan><tspan x="-4.456" y="13.447" fill="#FFFFFF" font-family="'HelveticaNeue-Light'" font-size="11.2069">em grávidas </tspan><tspan x="-1.132" y="26.896" fill="#FFFFFF" font-family="'HelveticaNeue-Light'" font-size="11.2069">e amamen-</tspan><tspan x="12.977" y="40.344" fill="#FFFFFF" font-family="'HelveticaNeue-Light'" font-size="11.2069">tação</tspan></text>
	</g>
	<circle fill="#DEDDDD" cx="289.339" cy="276.551" r="53.861"/>
	<g>
		<g>
			<polygon fill="#FBB03C" points="299.146,298.691 292.898,298.691 282.088,281.155 288.334,281.155 			"/>
			
				<ellipse transform="matrix(0.9998 -0.0195 0.0195 0.9998 -5.4863 5.8798)" fill="#F04923" cx="298.905" cy="284.398" rx="9.482" ry="8.672"/>
			<path fill="#C12026" d="M310.1,276.814c0.402-0.606,0.637-1.335,0.637-2.116c0-1.609-0.992-2.986-2.395-3.559
				c0.147-0.408,0.233-0.846,0.233-1.306c0-2.021-1.562-3.675-3.546-3.829c0-0.004,0.002-0.009,0.002-0.015
				c0-2.123-1.722-3.844-3.844-3.844c-0.186,0-0.366,0.018-0.544,0.042c-0.322-1.799-1.89-3.166-3.781-3.166
				c-0.706,0-1.364,0.193-1.932,0.524c-0.616-1.302-1.938-2.206-3.473-2.206c-1.183,0-2.238,0.535-2.944,1.374
				c-0.704-0.839-1.761-1.374-2.942-1.374c-1.44,0-2.694,0.793-3.353,1.965c-0.639-0.477-1.432-0.764-2.293-0.764
				c-1.803,0-3.312,1.244-3.727,2.918c-0.342-0.1-0.702-0.155-1.077-0.155c-2.124,0-3.844,1.72-3.844,3.843
				c0,0.006,0.001,0.012,0.001,0.019c-0.119-0.012-0.24-0.019-0.361-0.019c-2.123,0-3.843,1.722-3.843,3.843
				c0,0.51,0.101,0.993,0.28,1.438c-1.678,0.413-2.924,1.923-2.924,3.727c0,0.841,0.273,1.617,0.731,2.25
				c-0.745,0.7-1.211,1.692-1.211,2.797c0,2.122,1.721,3.843,3.843,3.843c0.138,0,0.273-0.009,0.407-0.023
				c0.299,0.067,0.608,0.103,0.928,0.103h36.516c0.234,0,0.464-0.022,0.688-0.06c0.277,0.062,0.565,0.1,0.86,0.1
				c2.123,0,3.844-1.72,3.844-3.844C311.037,278.363,310.682,277.486,310.1,276.814z"/>
			<path fill="none" stroke="#F04923" stroke-width="0.9609" stroke-linecap="round" stroke-linejoin="round" d="M296.612,262.821
				c-0.615-1.302-1.936-2.207-3.473-2.207c-1.182,0-2.237,0.535-2.943,1.373c-0.705-0.838-1.761-1.373-2.943-1.373
				c-1.439,0-2.693,0.793-3.351,1.966c-0.64-0.478-1.433-0.764-2.294-0.764c-1.803,0-3.312,1.243-3.727,2.918
				c-0.341-0.1-0.703-0.156-1.077-0.156c-2.123,0-3.844,1.722-3.844,3.844"/>
			<path fill="#C12026" d="M310.116,284.458c0,2.022-1.64,3.664-3.665,3.664H283.81c-2.023,0-3.664-1.642-3.664-3.664l0,0
				c0-2.023,1.641-3.665,3.664-3.665h22.641C308.476,280.793,310.116,282.435,310.116,284.458L310.116,284.458z"/>
			<path fill="none" stroke="#F04923" stroke-width="0.9609" stroke-linecap="round" stroke-linejoin="round" d="M289.645,265.874
				h2.36c1.445,0,2.617,1.172,2.617,2.617l0,0c0,1.446-1.172,2.618-2.617,2.618h-16.466c-1.445,0-2.618-1.172-2.618-2.618l0,0
				c0-0.44,0.109-0.857,0.303-1.221"/>
			<path fill="none" stroke="#F04923" stroke-width="0.9609" stroke-linecap="round" stroke-linejoin="round" d="M298.493,278.095
				h-16.467c-1.446,0-2.617-1.171-2.617-2.617l0,0c0-0.442,0.109-0.857,0.303-1.223"/>
			<path fill="none" stroke="#F04923" stroke-width="0.9609" stroke-linecap="round" stroke-linejoin="round" d="M290.072,278.155
				c-1.445,0-2.614-1.171-2.614-2.617l0,0c0-0.441,0.107-0.857,0.303-1.222"/>
			<path fill="none" stroke="#F04923" stroke-width="0.9609" stroke-linecap="round" stroke-linejoin="round" d="M288.104,287.58
				c-0.421-0.14-0.799-0.412-1.07-0.804l0,0c-0.203-0.295-0.32-0.62-0.36-0.951"/>
			<path fill="none" stroke="#F04923" stroke-width="0.9609" stroke-linecap="round" stroke-linejoin="round" d="M309.195,276.473
				c-1.338,0.548-2.866-0.093-3.412-1.432l0,0c-0.168-0.409-0.223-0.835-0.184-1.246"/>
			<path fill="none" stroke="#F04923" stroke-width="0.9609" stroke-linecap="round" stroke-linejoin="round" d="M294.77,268.276
				h2.361c1.445,0,2.617,1.172,2.617,2.617l0,0c0,1.445-1.172,2.617-2.617,2.617"/>
			<path fill="none" stroke="#F04923" stroke-width="0.9609" stroke-linecap="round" stroke-linejoin="round" d="M298.852,281.023
				h-4.659c-1.166,0-2.111,0.945-2.111,2.111l0,0c0,1.166,0.945,2.111,2.111,2.111"/>
			<path fill="none" stroke="#F04923" stroke-width="0.9609" stroke-linecap="round" stroke-linejoin="round" d="M280.348,284
				c0.55-1.042,1.645-1.749,2.904-1.749h8.772"/>
			<path fill="none" stroke="#F04923" stroke-width="0.9609" stroke-linecap="round" stroke-linejoin="round" d="M272.449,273.809
				c-1.366,0-2.475-1.107-2.475-2.476c0-1.367,1.109-2.475,2.475-2.475c0.053,0,0.106,0.002,0.159,0.005"/>
			<path fill="none" stroke="#F04923" stroke-width="0.9609" stroke-linecap="round" stroke-linejoin="round" d="M274.209,273.189
				c-0.054-0.004-0.106-0.005-0.159-0.005c-1.367,0-2.475,1.107-2.475,2.474c0,1.368,1.108,2.476,2.475,2.476h9.557"/>
			<path fill="none" stroke="#F04923" stroke-width="0.9609" stroke-linecap="round" stroke-linejoin="round" d="M303.737,283.055
				c0.052,0.002,0.105,0.003,0.157,0.003c1.367,0,2.476-1.107,2.476-2.475s-1.108-2.474-2.476-2.474h-9.557"/>
			<path fill="none" stroke="#F04923" stroke-width="0.7133" stroke-linecap="round" stroke-linejoin="round" d="M285.582,270.967
				c-1.854,0-3.355-1.502-3.355-3.356"/>
			<path fill="none" stroke="#F04923" stroke-width="0.9609" stroke-linecap="round" stroke-linejoin="round" d="M265.098,277.108
				c0.629-0.367,1.387-0.524,2.163-0.392c0.779,0.133,1.444,0.535,1.916,1.096"/>
			<path fill="none" stroke="#F04923" stroke-width="0.9683" stroke-linecap="round" stroke-linejoin="round" d="M300.34,267.549
				c0.042-0.018,0.085-0.035,0.128-0.052c1.458-0.572,3.111,0.128,3.692,1.566c0.581,1.438-0.129,3.064-1.59,3.637
				c-0.043,0.017-0.086,0.033-0.129,0.047"/>
			<path fill="none" stroke="#F04923" stroke-width="0.9683" stroke-linecap="round" stroke-linejoin="round" d="M296.438,263.508
				c0.031-0.031,0.064-0.062,0.1-0.093c1.149-1.052,2.951-0.986,4.019,0.147c1.067,1.134,1,2.906-0.153,3.958
				c-0.032,0.03-0.067,0.06-0.101,0.09"/>
		</g>
		<path fill="#A09F9F" d="M284.79,252.677c0,0.333-0.27,0.602-0.602,0.602l0,0c-0.332,0-0.602-0.269-0.602-0.602v-5.72
			c0-0.333,0.27-0.602,0.602-0.602l0,0c0.332,0,0.602,0.27,0.602,0.602V252.677z"/>
		<path fill="#A09F9F" d="M287.725,254.408c0,0.333-0.268,0.603-0.602,0.603l0,0c-0.332,0-0.603-0.27-0.603-0.603v-5.719
			c0-0.333,0.271-0.602,0.603-0.602l0,0c0.334,0,0.602,0.269,0.602,0.602V254.408z"/>
		<path fill="#A09F9F" d="M290.585,252.752c0,0.333-0.27,0.602-0.603,0.602l0,0c-0.331,0-0.603-0.269-0.603-0.602v-5.72
			c0-0.332,0.271-0.602,0.603-0.602l0,0c0.333,0,0.603,0.27,0.603,0.602V252.752z"/>
		<path fill="#A09F9F" d="M302.551,234.469c0-3.06-2.481-5.54-5.542-5.54c-1.538,0-2.93,0.629-3.935,1.643
			c-0.717-0.994-1.881-1.643-3.199-1.643c-1.414,0-2.652,0.748-3.349,1.867c-0.925-1.331-2.463-2.203-4.206-2.203
			c-2.54,0-4.641,1.85-5.045,4.274c-2.987,0.451-5.279,3.021-5.279,6.135c0,3.431,2.781,6.211,6.211,6.211
			c2.265,0,4.241-1.216,5.326-3.026c1.219,1.651,3.279,2.601,5.456,2.3c1.308-0.18,2.445-0.788,3.311-1.656
			c0.501,1.855,2.192,3.221,4.208,3.221c2.409,0,4.363-1.954,4.363-4.365c0-0.964-0.315-1.853-0.845-2.575
			C301.545,238.124,302.551,236.416,302.551,234.469z"/>
	</g>
	<path fill="#3D3D3D" d="M243.088,295.943c7.583,18.062,25.435,30.748,46.25,30.748c20.817,0,38.668-12.687,46.25-30.748H243.088z"
		/>
	<text transform="matrix(1 0 0 1 252.3145 305.8574)"><tspan x="0" y="0" fill="#FFFFFF" font-family="'HelveticaNeue-Light'" font-size="10.3876">Psicoterapia em </tspan><tspan x="13.281" y="12.465" fill="#FFFFFF" font-family="'HelveticaNeue-Light'" font-size="10.3876">Depressão</tspan></text>
	<g>
		<path fill="#69C188" d="M374.699,191.519V163h-10.33v-3.817c1.347,0,2.656-0.103,3.93-0.309c1.271-0.205,2.423-0.589,3.453-1.151
			c1.028-0.561,1.899-1.328,2.61-2.302c0.71-0.973,1.197-2.208,1.46-3.705h3.648v39.804H374.699z"/>
	</g>
	<g>
		<path fill="#0CA54A" d="M410.465,269.05c0.519-1.705,1.324-3.176,2.419-4.419c1.092-1.241,2.454-2.215,4.085-2.918
			c1.63-0.704,3.484-1.056,5.56-1.056c1.705,0,3.308,0.249,4.809,0.75c1.501,0.499,2.809,1.224,3.92,2.168s1.991,2.123,2.64,3.529
			c0.648,1.409,0.973,3.04,0.973,4.894c0,1.743-0.268,3.279-0.805,4.612c-0.538,1.335-1.251,2.53-2.141,3.586
			c-0.89,1.058-1.909,2.012-3.058,2.864c-1.149,0.852-2.335,1.669-3.559,2.446c-1.223,0.743-2.445,1.474-3.669,2.196
			c-1.223,0.722-2.345,1.492-3.363,2.308c-1.021,0.816-1.89,1.696-2.612,2.641c-0.724,0.945-1.195,2.028-1.418,3.252h20.236v4.17
			h-25.74c0.185-2.336,0.602-4.327,1.251-5.979c0.647-1.647,1.473-3.083,2.474-4.308c1.001-1.222,2.131-2.297,3.391-3.224
			c1.261-0.927,2.577-1.797,3.947-2.612c1.668-1.036,3.131-1.992,4.393-2.864c1.26-0.872,2.308-1.751,3.141-2.641
			c0.835-0.887,1.464-1.851,1.891-2.891c0.425-1.038,0.64-2.242,0.64-3.613c0-1.075-0.205-2.046-0.612-2.918
			c-0.409-0.872-0.955-1.621-1.64-2.253c-0.687-0.63-1.493-1.11-2.419-1.444c-0.927-0.334-1.909-0.5-2.946-0.5
			c-1.371,0-2.548,0.288-3.53,0.86c-0.98,0.575-1.788,1.325-2.417,2.253c-0.631,0.926-1.085,1.974-1.363,3.141
			c-0.277,1.167-0.399,2.343-0.36,3.528h-4.727C409.742,272.609,409.946,270.754,410.465,269.05z"/>
	</g>
	<circle fill="#088141" cx="503.361" cy="228.594" r="42.149"/>
	<path fill="#FFFFFF" d="M529.561,224.981c0,7.284-4.889,13.43-11.558,15.344c3.05-1.793,5.097-5.087,5.097-8.875
		c0-5.159-3.81-9.409-8.771-10.153v9.098l-17.124-15.025l17.124-15.016v8.701C522.799,209.441,529.561,216.41,529.561,224.981z
		 M493.265,246.604v8.701l17.12-15.021l-17.12-15.021v9.09c-4.96-0.734-8.772-4.99-8.772-10.146c0-3.789,2.047-7.087,5.095-8.873
		c-6.671,1.915-11.561,8.06-11.561,15.338C478.027,239.248,484.792,246.21,493.265,246.604z"/>
	<g>
		<circle fill="none" stroke="#FFFFFF" stroke-width="2.6324" stroke-miterlimit="10" cx="380.147" cy="79.918" r="20.94"/>
		<circle fill="#F5F5F5" cx="411.176" cy="68.348" r="4.895"/>
		<circle fill="#F5F5F5" cx="380.398" cy="71.724" r="4.893"/>
		<circle fill="#F5F5F5" cx="387.52" cy="83.831" r="4.893"/>
		<circle fill="#F5F5F5" cx="373.123" cy="83.499" r="4.894"/>
	</g>
	<circle fill="#34AE61" cx="457.74" cy="422.677" r="42.149"/>
	<g>
		<path fill="#69C188" d="M363.519,388.923c0.185,0,0.369,0,0.554,0h0.994c0.995,0,1.944-0.137,2.847-0.415
			c0.903-0.275,1.695-0.681,2.379-1.215c0.68-0.534,1.225-1.206,1.63-2.02c0.405-0.81,0.607-1.73,0.607-2.764
			c0-2.1-0.662-3.678-1.99-4.728c-1.325-1.05-2.984-1.573-4.976-1.573c-1.253,0-2.349,0.229-3.29,0.69
			c-0.938,0.462-1.711,1.077-2.32,1.853c-0.608,0.772-1.06,1.677-1.355,2.709c-0.294,1.032-0.441,2.12-0.441,3.262h-4.699
			c0.074-1.881,0.378-3.596,0.911-5.143c0.535-1.547,1.3-2.875,2.296-3.98c0.994-1.104,2.238-1.972,3.732-2.598
			c1.492-0.627,3.215-0.938,5.167-0.938c1.695,0,3.271,0.21,4.729,0.634c1.455,0.424,2.717,1.061,3.786,1.909
			c1.069,0.848,1.906,1.935,2.516,3.259c0.608,1.329,0.913,2.896,0.913,4.701c0,1.768-0.518,3.336-1.549,4.7
			c-1.032,1.362-2.322,2.394-3.87,3.096v0.111c2.396,0.514,4.175,1.638,5.335,3.37c1.161,1.734,1.742,3.778,1.742,6.137
			c0,1.954-0.36,3.677-1.078,5.169c-0.72,1.494-1.686,2.738-2.904,3.732c-1.216,0.995-2.644,1.739-4.284,2.239
			c-1.64,0.496-3.382,0.745-5.225,0.745c-1.989,0-3.795-0.275-5.417-0.829c-1.623-0.553-3.005-1.371-4.146-2.458
			c-1.142-1.089-2.019-2.425-2.625-4.01c-0.608-1.585-0.896-3.391-0.857-5.417h4.698c0.074,2.542,0.811,4.616,2.213,6.218
			c1.398,1.605,3.445,2.406,6.135,2.406c1.143,0,2.229-0.176,3.263-0.525c1.031-0.349,1.936-0.849,2.709-1.494
			c0.773-0.642,1.391-1.436,1.852-2.375c0.461-0.942,0.691-2,0.691-3.18c0-1.217-0.222-2.295-0.663-3.233
			c-0.442-0.939-1.032-1.733-1.77-2.379c-0.738-0.642-1.612-1.123-2.626-1.437c-1.015-0.312-2.109-0.47-3.289-0.47
			c-0.995,0-1.936,0.055-2.82,0.166v-3.979C363.207,388.904,363.372,388.923,363.519,388.923z"/>
	</g>
	<path fill="#69C188" d="M478.155,402.695c-4.245-4.244-11.128-4.244-15.373,0l-13.793,13.794l15.372,15.371l13.794-13.791
		C482.4,413.823,482.4,406.941,478.155,402.695z"/>
	<path fill="#FFFFFF" d="M454.177,421.677l12.063-12.063l-1.923-1.922l-12.062,12.063l-3.268-3.266l-10.797,10.798
		c-4.247,4.244-4.245,11.127,0,15.371c4.245,4.245,11.127,4.245,15.372,0l10.797-10.798L454.177,421.677z"/>
	<circle fill="#2A928E" cx="296.612" cy="499.692" r="42.149"/>
	<g>
		<path fill="#58ACA9" d="M263.317,416.428v4.166h-5.332v9.22h-4.445v-9.22h-17.27v-4.555l17.937-25.604h3.778v25.993H263.317z
			 M253.541,397.154h-0.108l-13.11,19.273h13.219V397.154z"/>
	</g>
	<circle fill="#006C68" cx="121.125" cy="420.811" r="42.149"/>
	<circle fill="#2A928E" cx="75.242" cy="222.691" r="42.149"/>
	<g>
		<path fill="#078984" d="M162.047,315.449l-2.12,11.376l0.11,0.111c0.854-0.967,1.96-1.68,3.32-2.145
			c1.358-0.466,2.704-0.697,4.042-0.697c1.749,0,3.402,0.277,4.962,0.836c1.563,0.558,2.919,1.404,4.074,2.538
			c1.149,1.135,2.064,2.547,2.73,4.236c0.67,1.694,1.005,3.674,1.005,5.939c0,1.676-0.288,3.301-0.865,4.881
			c-0.578,1.582-1.442,2.983-2.593,4.212c-1.155,1.226-2.593,2.203-4.323,2.927c-1.729,0.726-3.746,1.087-6.051,1.087
			c-1.712,0-3.318-0.249-4.822-0.751c-1.509-0.504-2.837-1.229-3.988-2.176c-1.153-0.947-2.065-2.127-2.732-3.54
			c-0.67-1.413-1.024-3.013-1.062-4.798h4.74c0.074,1.003,0.325,1.944,0.754,2.818c0.425,0.873,1.002,1.636,1.728,2.285
			c0.723,0.649,1.579,1.152,2.563,1.505c0.986,0.354,2.076,0.53,3.262,0.53c1.117,0,2.186-0.195,3.209-0.585
			c1.023-0.393,1.916-0.978,2.68-1.756c0.76-0.781,1.364-1.759,1.81-2.931c0.444-1.171,0.667-2.535,0.667-4.098
			c0-1.303-0.212-2.499-0.64-3.598c-0.428-1.094-1.032-2.045-1.811-2.844c-0.782-0.799-1.72-1.424-2.815-1.867
			c-1.1-0.446-2.315-0.67-3.655-0.67c-1.562,0-2.945,0.343-4.154,1.03c-1.209,0.69-2.277,1.589-3.208,2.705l-4.068-0.222
			l3.679-20.524h19.52v4.183H162.047z"/>
	</g>
	<g>
		<g>
			<path fill-rule="evenodd" clip-rule="evenodd" fill="#FFFFFF" d="M116.795,408.649c0.012,0.013,0.023,0.024,0.036,0.036
				c-0.027,0.67-0.076,1.342-0.07,2.012c0.271,0.22,0.529,0.437,0.758,0.689c0.093,0.101,0.168,0.268,0.265,0.335
				c0.234,0.161,0.782,0.011,1.024,0c0.373-0.015,0.707,0.002,1.023-0.034c0.012,0.01,0.024,0.022,0.035,0.034
				c0.145,0.353,0.319,0.708,0.425,1.059c-0.489,0.409-0.977,0.92-1.466,1.326c0.041,0.529,0.044,1.059,0,1.59
				c0.49,0.442,0.978,0.871,1.466,1.356c-0.127,0.342-0.271,0.684-0.424,1.023c-0.013,0.013-0.024,0.024-0.035,0.035
				c-0.67-0.022-1.342-0.065-2.013-0.069c-0.264,0.353-0.679,0.791-1.041,1.043c-0.055,0.676,0.04,1.353,0.053,2.028
				c-0.019,0.019-0.037,0.036-0.055,0.053c-0.352,0.117-0.706,0.348-1.059,0.391c-0.425-0.484-0.864-0.968-1.341-1.448
				c-0.248,0.011-0.483,0.034-0.777,0.034c-0.179,0-0.656-0.1-0.794-0.015c-0.23,0.132-0.438,0.488-0.653,0.721
				c-0.229,0.248-0.445,0.472-0.654,0.725c-0.359-0.107-0.718-0.262-1.077-0.44c-0.032-0.32,0.022-0.648,0.036-1.024
				c0.006-0.183,0.099-0.87,0-1.023c-0.053-0.083-0.224-0.163-0.336-0.265c-0.287-0.266-0.533-0.538-0.705-0.778
				c-0.684-0.026-1.366,0.1-2.049,0.035c-0.144-0.346-0.333-0.694-0.407-1.04c0.483-0.477,0.964-0.921,1.447-1.341
				c0.019-0.255-0.051-0.495-0.051-0.797c-0.001-0.192,0.129-0.652,0.034-0.811c-0.132-0.229-0.488-0.438-0.723-0.653
				c-0.241-0.226-0.477-0.445-0.724-0.653c0.109-0.359,0.265-0.72,0.441-1.077c0.31-0.024,0.638,0.021,1.023,0.035
				c0.217,0.009,0.868,0.103,1.043-0.019c0.201-0.137,0.394-0.49,0.671-0.741c0.081-0.072,0.281-0.18,0.335-0.264
				c0.063-0.1,0.024-0.341,0.018-0.513c-0.018-0.559-0.088-1.059-0.035-1.555c0.348-0.137,0.694-0.329,1.042-0.405
				c0.477,0.483,0.91,0.964,1.341,1.447c0.529-0.034,1.06-0.035,1.588,0c0.436-0.489,0.875-0.978,1.36-1.465
				C116.113,408.362,116.454,408.501,116.795,408.649z M112.524,413.841c-0.74,0.747-0.48,2.173,0.651,2.525
				c1.427,0.441,2.801-1.593,1.29-2.702C113.914,413.259,113.106,413.25,112.524,413.841z"/>
			<path fill-rule="evenodd" clip-rule="evenodd" fill="#FFFFFF" d="M95.831,425.157c-0.207-0.207-0.412-0.411-0.617-0.617
				c0.036-0.043-0.068-0.083-0.088-0.126c0.296-0.599,0.538-1.199,0.847-1.799c-0.258-0.477-0.467-0.954-0.583-1.429
				c-0.619-0.243-1.235-0.458-1.854-0.69c-0.105-0.395-0.073-0.788-0.018-1.183c0.619-0.239,1.237-0.458,1.854-0.688
				c0.155-0.471,0.303-0.941,0.6-1.411c-0.271-0.613-0.565-1.226-0.846-1.839c0.042-0.063,0.174-0.129,0.16-0.193
				c0.158-0.158,0.317-0.315,0.476-0.476c0.185-0.228,0.412-0.068,0.635,0.034c0.448,0.203,1.074,0.536,1.396,0.653
				c0.47-0.288,0.941-0.45,1.412-0.601c0.236-0.618,0.444-1.235,0.689-1.854c0.394-0.054,0.788-0.085,1.183,0.018
				c0.228,0.618,0.444,1.236,0.688,1.855c0.465,0.125,0.93,0.299,1.395,0.582c0.617-0.25,1.235-0.594,1.854-0.829
				c0.287,0.236,0.568,0.527,0.812,0.811c-0.284,0.613-0.565,1.224-0.848,1.837c0.298,0.472,0.448,0.941,0.601,1.412
				c0.616,0.235,1.235,0.444,1.853,0.688c0.058,0.396,0.089,0.789-0.017,1.183c-0.613,0.229-1.225,0.458-1.836,0.671
				c-0.161,0.474-0.291,0.941-0.601,1.412c0.254,0.619,0.603,1.236,0.83,1.855c-0.22,0.273-0.539,0.591-0.811,0.811
				c-0.612-0.277-1.225-0.565-1.836-0.847c-0.471,0.303-0.942,0.461-1.413,0.601c-0.223,0.63-0.462,1.259-0.688,1.889
				c-0.394,0.003-0.789,0.034-1.183-0.019c-0.206-0.629-0.45-1.258-0.688-1.887c-0.466-0.116-0.93-0.288-1.396-0.584
				c-0.6,0.281-1.199,0.536-1.799,0.847C95.938,425.268,95.886,425.126,95.831,425.157z M99.998,418.448
				c-1.046,0.337-1.317,1.648-0.723,2.384c0.398,0.496,1.088,0.655,1.517,0.565c1.385-0.294,1.531-1.963,0.601-2.686
				C100.934,418.358,100.372,418.327,99.998,418.448z"/>
		</g>
		<g>
			<path fill-rule="evenodd" clip-rule="evenodd" fill="#FFFFFF" d="M119.291,404.454c0.147,0,0.065,0.01,0.147,0
				c2.445,0.612,4.772,1.59,6.765,2.795c1.853,1.119,4.093,2.5,4.559,5c-0.45,0.824-1.81,0.738-2.354,1.471
				c0.478,1.973,1.395,3.508,1.325,6.029c0,0.146,0.001,0.063,0,0.146c0.592,3.091-1.533,6.361-0.148,9.12
				c0.681,1.356,3.334,2.517,3.383,3.971c0.062,1.849-2.121,1.743-3.235,2.941c0.009,1.393,1.291,2.129,0.587,3.383
				c-0.404,0.198-0.337,0.179-0.441,0.44c0.178,0.46,0.545,0.73,0.441,1.472c-0.334,0.303-0.563,0.71-1.323,0.588
				c0.037,1.047,0.405,1.384,0.294,2.353c-0.473,4.149-5.247,1.244-8.531,2.647c-2.219,0.948-2.381,2.208-3.088,4.559
				c-6.429-1.315-12.434-3.057-18.824-4.412c1.115-3.033,0.908-7.467-0.882-9.559c0,0-0.106-0.103-0.148-0.147
				c-2.844-2.303-5.509-4.785-7.058-8.383c-0.103-0.045-0.103-0.045-0.147-0.147c-4.527-10.135,2.288-20.753,10.147-23.235
				c0.183-0.234,0.183-0.234,0.294-0.296C105.909,403.362,113.798,402.797,119.291,404.454z M110.319,405.63
				c-2.077-1.229-3.802,0.282-5.294,0.736c-0.746,0.227-1.568,0.116-2.06,0.294c-0.74,0.267-1.324,1.045-2.058,1.324
				c-1.117,0.424-2.28,0.406-3.236,1.029c-1.128,0.734-1.632,1.652-2.207,2.646c-2.1,0.593-2.381,2.404-3.235,4.413
				c-0.766,1.805-2.293,3.345-1.029,5.441c-1.255,7.091,5.092,11.332,11.324,9.118c1.634-0.58,2.916-2.492,4.854-3.234
				c1.122-0.432,2.663-0.343,3.971-0.736c1.068-0.322,1.877-1.193,2.647-1.322c1.525-0.257,3.049,1.047,4.412,1.028
				c0.678-0.008,1.287-0.511,2.06-0.589c0.826-0.083,1.74,0.286,2.5,0.147c1.491-0.272,3.319-1.715,3.971-3.234
				c0.391-0.91,0.195-1.912,0.442-3.09c0.168-0.805,0.555-1.39,0.588-1.911c0.154-2.437-0.893-2.435-1.765-4.118
				c-0.512-0.986-0.554-1.96-1.176-2.646c-0.496-0.548-1.389-0.71-2.06-1.325c-0.867-0.792-1.177-1.679-1.912-2.058
				c-0.803-0.415-1.892-0.708-2.794-0.441C117.018,405.199,112.931,404.387,110.319,405.63z"/>
		</g>
	</g>
	<g>
		<path fill="#58ACA9" d="M176.642,201.464c-1.134-1.062-2.634-1.592-4.5-1.592c-1.976,0-3.567,0.485-4.774,1.453
			c-1.208,0.972-2.151,2.199-2.828,3.68c-0.676,1.483-1.144,3.083-1.399,4.805c-0.257,1.716-0.403,3.328-0.439,4.828l0.11,0.109
			c1.098-1.793,2.46-3.093,4.089-3.897c1.627-0.804,3.503-1.208,5.625-1.208c1.868,0,3.541,0.323,5.022,0.963
			c1.483,0.641,2.727,1.527,3.733,2.662c1.005,1.132,1.783,2.467,2.332,4.006c0.549,1.536,0.823,3.202,0.823,4.996
			c0,1.425-0.219,2.907-0.658,4.442c-0.438,1.54-1.162,2.938-2.168,4.201c-1.008,1.261-2.343,2.305-4.007,3.126
			c-1.665,0.826-3.723,1.237-6.174,1.237c-2.891,0-5.214-0.586-6.971-1.756c-1.757-1.171-3.11-2.673-4.062-4.499
			c-0.952-1.831-1.584-3.845-1.893-6.039c-0.312-2.196-0.468-4.318-0.468-6.369c0-2.669,0.229-5.258,0.686-7.766
			c0.458-2.506,1.237-4.728,2.333-6.668c1.097-1.941,2.561-3.495,4.391-4.666c1.831-1.171,4.136-1.755,6.916-1.755
			c3.221,0,5.781,0.85,7.684,2.551c1.903,1.702,3,4.163,3.295,7.384h-4.667C178.455,203.934,177.777,202.526,176.642,201.464z
			 M168.189,214.444c-0.987,0.458-1.831,1.08-2.524,1.866c-0.696,0.788-1.217,1.721-1.564,2.8c-0.349,1.08-0.522,2.221-0.522,3.431
			c0,1.206,0.183,2.342,0.549,3.404s0.888,1.976,1.564,2.745c0.676,0.766,1.518,1.379,2.525,1.839
			c1.005,0.458,2.148,0.686,3.432,0.686c1.279,0,2.404-0.228,3.375-0.686c0.969-0.46,1.784-1.089,2.441-1.896
			c0.66-0.804,1.162-1.729,1.51-2.772c0.348-1.042,0.521-2.13,0.521-3.266c0-1.207-0.156-2.35-0.465-3.43
			c-0.313-1.077-0.796-2.011-1.457-2.799c-0.658-0.788-1.481-1.418-2.469-1.894c-0.987-0.474-2.141-0.713-3.457-0.713
			C170.331,213.758,169.176,213.99,168.189,214.444z"/>
	</g>
	<g>
		<polygon fill="#FFFFFF" points="59.896,198.732 47.305,211.323 47.305,235.154 83.728,235.154 83.728,198.732 		"/>
		<polygon fill="#2A928E" points="60.736,199.572 48.145,212.163 60.736,212.163 		"/>
	</g>
	<g>
		<path fill="#658BB5" d="M280.297,130.242c-1.79,2.779-3.379,5.749-4.769,8.908c-1.39,3.162-2.522,6.417-3.397,9.766
			c-0.877,3.35-1.41,6.605-1.6,9.765h-5.425c0.229-3.427,0.789-6.767,1.685-10.022c0.894-3.255,2.046-6.377,3.455-9.366
			c1.408-2.988,3.035-5.814,4.883-8.48c1.846-2.665,3.834-5.121,5.967-7.367h-21.244v-4.568h26.212v4.168
			C284.009,125.065,282.086,127.464,280.297,130.242z"/>
	</g>
	<g>
		<path fill="#FFFFFF" d="M307.413,508.203c-2.097,0-4.029,0.703-5.577,1.883c-2.652-1.108-5.234-2.269-6.55-3.082
			c-0.924-0.574-2.229-1.577-3.65-2.746c0.694-1.482,1.084-3.136,1.084-4.881c0-1.51-0.293-2.949-0.821-4.271
			c1.454-1.405,2.806-2.634,3.733-3.309c1.162-0.845,3.307-2.04,5.599-3.233c1.636,1.48,3.804,2.382,6.183,2.382
			c5.089,0,9.214-4.124,9.214-9.212c0-5.089-4.125-9.213-9.214-9.213c-5.088,0-9.214,4.124-9.214,9.213
			c0,0.445,0.034,0.882,0.095,1.31c-2,2.007-4.01,3.919-5.244,4.816c-0.981,0.715-2.639,1.665-4.494,2.653
			c-1.995-1.656-4.557-2.653-7.353-2.653c-6.361,0-11.517,5.157-11.517,11.517c0,6.361,5.156,11.518,11.517,11.518
			c2.566,0,4.936-0.842,6.851-2.26c1.888,0.828,3.57,1.63,4.562,2.246c1.363,0.845,3.594,2.661,5.8,4.555
			c-0.14,0.639-0.217,1.302-0.217,1.982c0,5.089,4.126,9.213,9.214,9.213c5.089,0,9.214-4.124,9.214-9.213
			C316.626,512.33,312.501,508.203,307.413,508.203z"/>
		<g>
			<path fill="#2A928E" d="M307.634,477.438l3.102,7.939h-1.168l-0.867-2.391h-3.357l-0.89,2.391h-1.078l3.091-7.939H307.634z
				 M308.368,482.098l-1.323-3.702h-0.021l-1.347,3.702H308.368z"/>
		</g>
		<g>
			<path fill="#2A928E" d="M307.19,513.576c0.17,0,0.353,0.003,0.55,0.006c0.196,0.004,0.39,0.016,0.583,0.033
				c0.193,0.02,0.372,0.047,0.539,0.084c0.168,0.037,0.311,0.094,0.429,0.166c0.26,0.155,0.48,0.37,0.661,0.645
				c0.182,0.275,0.273,0.612,0.273,1.012c0,0.424-0.103,0.79-0.306,1.098c-0.204,0.307-0.494,0.535-0.873,0.682v0.023
				c0.488,0.104,0.862,0.325,1.123,0.667c0.259,0.341,0.388,0.757,0.388,1.245c0,0.289-0.051,0.571-0.154,0.846
				c-0.104,0.274-0.259,0.517-0.462,0.728c-0.204,0.212-0.456,0.383-0.756,0.513c-0.3,0.129-0.646,0.193-1.04,0.193h-3.836v-7.939
				H307.19z M307.478,516.991c0.6,0,1.032-0.106,1.296-0.318c0.262-0.209,0.395-0.529,0.395-0.95c0-0.281-0.046-0.504-0.134-0.667
				c-0.09-0.162-0.212-0.289-0.367-0.378s-0.335-0.146-0.538-0.172c-0.205-0.027-0.422-0.039-0.651-0.039h-2.111v2.524H307.478z
				 M308.011,520.626c0.468,0,0.833-0.125,1.097-0.378c0.263-0.252,0.394-0.601,0.394-1.045c0-0.259-0.048-0.475-0.144-0.645
				c-0.098-0.171-0.225-0.307-0.385-0.406c-0.159-0.101-0.343-0.17-0.55-0.212c-0.208-0.041-0.423-0.061-0.645-0.061h-2.412v2.746
				H308.011z"/>
		</g>
		<path fill="#2A928E" d="M288.081,503.912c-0.315-1.189-3.323-1.966-4.876-2.571c-0.495-0.193-0.616-0.963-0.621-1.614
			c0.223-0.165,0.422-0.407,0.619-0.719c0.285-0.448,0.563-0.799,0.787-1.38c0.142-0.021,0.303-0.135,0.389-0.286
			c0.339-0.599,0.514-1.543,0.403-1.844c-0.06-0.164-0.232-0.205-0.375-0.208c0.083-2.149-0.92-3.432-2.19-3.917
			c-0.285-0.12-0.766-0.305-1.432-0.482c-0.367-0.098-0.652-0.295-0.684-0.476c-0.163,0.031-0.588,0.596-0.375,0.889
			c0.004,0-1.047-0.048-1.224,0.622c-0.033,0.032,0.077,0.005,0.211-0.012c-0.797,0.67-1.33,1.785-1.269,3.376
			c-0.149-0.004-0.349,0.026-0.416,0.206c-0.11,0.303,0.066,1.242,0.405,1.842c0.093,0.164,0.271,0.281,0.421,0.284
			c0.217,0.581,0.489,0.924,0.772,1.372c0.217,0.346,0.437,0.588,0.69,0.755c-0.016,0.592-0.154,1.262-0.667,1.409
			c-0.96,0.277-4.458,1.373-4.892,2.754c-0.26,0.827-0.26,1.367-0.26,1.367c0,0.594,0.503,1.078,1.122,1.078h12.61
			c0.618,0,1.121-0.484,1.121-1.078C288.351,505.007,288.313,504.792,288.081,503.912z"/>
	</g>
	<g>
		<text transform="matrix(-0.024 -0.9997 0.9997 -0.024 289.6499 465.7432)"><tspan x="0" y="0" fill="#FFFFFF" font-family="'HelveticaNeue-Light'" font-size="11.2069">preferências </tspan><tspan x="10.485" y="13.449" fill="#FFFFFF" font-family="'HelveticaNeue-Light'" font-size="11.2069">paciente</tspan></text>
	</g>
	<g>
		<text transform="matrix(0.7326 -0.6806 0.6806 0.7326 146.3965 390.2939)"><tspan x="0" y="0" fill="#FFFFFF" font-family="'HelveticaNeue-Light'" font-size="11.2069">terapia </tspan><tspan x="-23.142" y="13.448" fill="#FFFFFF" font-family="'HelveticaNeue-Light'" font-size="11.2069">comportamental </tspan><tspan x="-3.423" y="26.896" fill="#FFFFFF" font-family="'HelveticaNeue-Light'" font-size="11.2069">cognitiva</tspan></text>
	</g>
	<g>
		<text transform="matrix(0.9694 0.2454 -0.2454 0.9694 105.1265 225.2485)"><tspan x="0" y="0" fill="#FFFFFF" font-family="'HelveticaNeue-Light'" font-size="11.2069">aviso com </tspan><tspan x="-6.129" y="13.448" fill="#FFFFFF" font-family="'HelveticaNeue-Light'" font-size="11.2069">antecedência</tspan></text>
	</g>
	<g>
		<text transform="matrix(0.7766 0.63 -0.63 0.7766 408.1851 346.9854)"><tspan x="0" y="0" fill="#FFFFFF" font-family="'HelveticaNeue-Light'" font-size="11.2069">considerar </tspan><tspan x="-4.467" y="13.448" fill="#FFFFFF" font-family="'HelveticaNeue-Light'" font-size="11.2069">combinação </tspan><tspan x="14.635" y="26.897" fill="#FFFFFF" font-family="'HelveticaNeue-Light'" font-size="11.2069">com </tspan><tspan x="0.308" y="40.345" fill="#FFFFFF" font-family="'HelveticaNeue-Light'" font-size="11.2069">medicação</tspan></text>
	</g>
</g>
</svg>
